<?xml version="1.0" encoding="UTF-8"?>
<svg xmlns="http://www.w3.org/2000/svg" xmlns:xlink="http://www.w3.org/1999/xlink" width="374.25pt" height="374.25pt" viewBox="0 0 374.25 374.25" version="1.2">
<g id="surface280739">
<path style=" stroke:none;fill-rule:nonzero;fill:rgb(100%,100%,100%);fill-opacity:1;" d="M 321.035156 191.890625 C 321.035156 259.363281 258.242188 314.054688 180.78125 314.054688 C 103.320312 314.054688 40.523438 259.363281 40.523438 191.890625 C 40.523438 124.421875 103.320312 69.730469 180.78125 69.730469 C 258.242188 69.730469 321.035156 124.421875 321.035156 191.890625 Z M 321.035156 191.890625 "/>
<path style=" stroke:none;fill-rule:nonzero;fill:rgb(0%,0%,0%);fill-opacity:1;" d="M 166.554688 374.292969 C 125.328125 369.390625 86.660156 351.136719 57.125 322.632812 C 29.117188 295.597656 11.515625 263.160156 3.398438 223.625 C 0.742188 210.675781 -0.1875 198.082031 0.296875 181.625 C 1.523438 140.15625 16.605469 100.84375 43.882812 68 C 61.191406 47.15625 86.425781 28.144531 111.117188 17.347656 C 175.703125 -10.898438 250.511719 -1.039062 304.929688 42.890625 C 314.324219 50.476562 330.011719 66.800781 337.324219 76.601562 C 354.976562 100.273438 366.082031 126.570312 372.164062 159.125 C 373.640625 167.023438 373.847656 170.601562 373.855469 188.375 C 373.867188 206.261719 373.671875 209.675781 372.175781 217.625 C 364.058594 260.8125 346.941406 293.730469 317.960938 321.890625 C 295.28125 343.925781 268.289062 359.601562 238.039062 368.304688 C 216.433594 374.523438 188.308594 376.878906 166.554688 374.292969 Z M 137 252.480469 C 161.246094 246.28125 180.664062 225.476562 184.90625 201.152344 C 190.679688 168.046875 172.976562 138.226562 140.679688 126.652344 C 136.113281 125.015625 133.835938 124.726562 123.152344 124.429688 C 108.839844 124.035156 103.964844 124.890625 93.921875 129.558594 C 85.550781 133.449219 79.453125 137.925781 72.746094 145.089844 C 66.734375 151.519531 63.175781 156.917969 60.363281 163.882812 C 56.605469 173.183594 55.941406 177.128906 55.996094 189.875 C 56.046875 201.25 56.171875 202.242188 58.410156 209 C 65.382812 230.039062 82.449219 246.269531 104.09375 252.441406 C 111.523438 254.558594 128.789062 254.582031 137 252.480469 Z M 113.304688 247.25 C 111.136719 246.910156 113.675781 246.71875 120.429688 246.710938 C 128.117188 246.703125 129.925781 246.855469 127.179688 247.285156 C 122.714844 247.980469 117.925781 247.96875 113.304688 247.25 Z M 107.117188 246.003906 C 107.632812 245.792969 108.476562 245.792969 108.992188 246.003906 C 109.507812 246.210938 109.085938 246.378906 108.054688 246.378906 C 107.023438 246.378906 106.601562 246.210938 107.117188 246.003906 Z M 132.664062 245.988281 C 133.207031 245.769531 133.855469 245.796875 134.101562 246.046875 C 134.351562 246.296875 133.910156 246.472656 133.117188 246.441406 C 132.246094 246.402344 132.066406 246.226562 132.664062 245.988281 Z M 101.679688 244.652344 C 98.785156 243.324219 100.132812 243.304688 103.554688 244.625 C 105 245.179688 105.675781 245.644531 105.054688 245.660156 C 104.4375 245.671875 102.917969 245.21875 101.679688 244.652344 Z M 112.929688 244.296875 C 110.75 243.871094 112.488281 243.679688 119.304688 243.597656 C 124.460938 243.535156 130.03125 243.324219 131.679688 243.128906 L 134.679688 242.773438 L 132.054688 243.484375 C 128.332031 244.488281 116.488281 244.992188 112.929688 244.296875 Z M 93.804688 241.21875 C 91.539062 239.988281 88.667969 238.113281 87.429688 237.054688 L 85.179688 235.125 L 87.789062 236.859375 C 89.226562 237.816406 92.433594 239.691406 94.914062 241.03125 C 97.398438 242.371094 99.09375 243.464844 98.679688 243.460938 C 98.269531 243.460938 96.074219 242.453125 93.804688 241.21875 Z M 107.914062 242.988281 C 108.457031 242.769531 109.105469 242.796875 109.351562 243.046875 C 109.601562 243.296875 109.160156 243.472656 108.367188 243.441406 C 107.496094 243.402344 107.316406 243.226562 107.914062 242.988281 Z M 146.695312 241.03125 C 149.179688 239.691406 152.386719 237.816406 153.820312 236.859375 L 156.429688 235.125 L 154.179688 237.054688 C 151.859375 239.046875 143.96875 243.511719 142.828125 243.480469 C 142.472656 243.472656 144.214844 242.371094 146.695312 241.03125 Z M 104.914062 242.238281 C 105.457031 242.019531 106.105469 242.046875 106.351562 242.296875 C 106.601562 242.546875 106.160156 242.722656 105.367188 242.691406 C 104.496094 242.652344 104.316406 242.476562 104.914062 242.238281 Z M 138.429688 241.25 C 140.492188 240.363281 141.675781 240.363281 140.304688 241.25 C 139.6875 241.648438 138.675781 241.957031 138.054688 241.933594 C 137.316406 241.90625 137.441406 241.675781 138.429688 241.25 Z M 95.453125 238.667969 C 86.679688 233.941406 78.054688 226.121094 74.070312 219.285156 C 72.59375 216.753906 72.925781 217.121094 77.875 223.484375 C 81.667969 228.363281 89.699219 234.847656 96.273438 238.339844 C 99.246094 239.917969 101.34375 241.210938 100.929688 241.210938 C 100.519531 241.214844 98.054688 240.070312 95.453125 238.667969 Z M 113.867188 239.96875 C 114.796875 239.792969 116.316406 239.792969 117.242188 239.96875 C 118.171875 240.148438 117.414062 240.296875 115.554688 240.296875 C 113.699219 240.296875 112.941406 240.148438 113.867188 239.96875 Z M 121.367188 239.96875 C 122.296875 239.792969 123.816406 239.792969 124.742188 239.96875 C 125.671875 240.148438 124.914062 240.296875 123.054688 240.296875 C 121.199219 240.296875 120.441406 240.148438 121.367188 239.96875 Z M 146.679688 237.6875 C 154.066406 233.792969 165.21875 222.578125 169.074219 215.160156 C 170.636719 212.15625 172.570312 207.9375 173.371094 205.785156 C 174.171875 203.632812 174.636719 202.886719 174.410156 204.125 C 173.714844 207.886719 168.484375 218.09375 164.652344 223.15625 C 162.664062 225.785156 158.878906 229.71875 156.242188 231.894531 C 151.816406 235.542969 143.589844 240.527344 142.078125 240.476562 C 141.722656 240.464844 143.792969 239.210938 146.679688 237.6875 Z M 103.410156 237.945312 C 95.691406 235.21875 89.808594 231.28125 83.367188 224.523438 C 77.261719 218.117188 78.167969 218.230469 84.617188 224.683594 C 89.886719 229.949219 92.4375 231.859375 97.554688 234.367188 C 101.0625 236.085938 105.789062 237.976562 108.054688 238.570312 C 110.347656 239.171875 111.347656 239.664062 110.304688 239.683594 C 109.273438 239.703125 106.171875 238.921875 103.410156 237.945312 Z M 130.367188 239.253906 C 130.882812 239.042969 131.726562 239.042969 132.242188 239.253906 C 132.757812 239.460938 132.335938 239.628906 131.304688 239.628906 C 130.273438 239.628906 129.851562 239.460938 130.367188 239.253906 Z M 137.855469 237.234375 C 149.449219 232.800781 160.242188 223.441406 165.464844 213.296875 C 168.78125 206.855469 169.921875 205.988281 167.019531 212.117188 C 161.640625 223.476562 145.945312 236.773438 135.804688 238.5625 C 134.058594 238.871094 134.742188 238.425781 137.855469 237.234375 Z M 113.679688 236.75 C 111.792969 236.410156 114.4375 236.210938 120.804688 236.210938 C 128.542969 236.210938 129.957031 236.34375 126.804688 236.78125 C 121.796875 237.472656 117.671875 237.464844 113.679688 236.75 Z M 108.664062 235.488281 C 109.207031 235.269531 109.855469 235.296875 110.101562 235.546875 C 110.351562 235.796875 109.910156 235.972656 109.117188 235.941406 C 108.246094 235.902344 108.066406 235.726562 108.664062 235.488281 Z M 131.914062 235.488281 C 132.457031 235.269531 133.105469 235.296875 133.351562 235.546875 C 133.601562 235.796875 133.160156 235.972656 132.367188 235.941406 C 131.496094 235.902344 131.316406 235.726562 131.914062 235.488281 Z M 78.324219 228.984375 C 72.878906 223.199219 68.339844 216.765625 67.132812 213.125 C 66.859375 212.300781 68.21875 214.273438 70.15625 217.507812 C 72.089844 220.742188 76.226562 226.058594 79.339844 229.320312 C 82.457031 232.582031 84.828125 235.25 84.613281 235.25 C 84.394531 235.25 81.566406 232.429688 78.324219 228.984375 Z M 161.679688 230 C 164.128906 227.523438 166.304688 225.5 166.507812 225.5 C 166.714844 225.5 164.878906 227.523438 162.429688 230 C 159.980469 232.472656 157.808594 234.5 157.601562 234.5 C 157.398438 234.5 159.230469 232.472656 161.679688 230 Z M 97.179688 231.300781 C 90.84375 227.90625 82.128906 218.933594 78.542969 212.117188 C 76.960938 209.105469 75.789062 206.515625 75.941406 206.367188 C 76.089844 206.214844 77.3125 208.210938 78.65625 210.800781 C 82.980469 219.144531 90.609375 226.886719 98.984375 231.433594 C 101.292969 232.683594 102.84375 233.710938 102.429688 233.710938 C 102.019531 233.710938 99.65625 232.625 97.179688 231.300781 Z M 143.304688 230.996094 C 150.035156 227.222656 159.460938 217.558594 162.71875 211.089844 C 164.113281 208.320312 165.859375 203.929688 166.601562 201.339844 C 167.34375 198.746094 167.972656 197.179688 168.003906 197.859375 C 168.195312 202.328125 162.835938 213.6875 157.453125 220.199219 C 153.535156 224.949219 141.570312 233.777344 139.117188 233.738281 C 138.738281 233.730469 140.625 232.496094 143.304688 230.996094 Z M 121.179688 232.285156 C 125.71875 231.953125 130.445312 231.46875 131.679688 231.199219 C 133.847656 230.734375 133.863281 230.746094 132.054688 231.558594 C 131.023438 232.023438 126.300781 232.511719 121.554688 232.644531 L 112.929688 232.882812 Z M 105.578125 230.425781 C 96.058594 226.507812 86.980469 219.074219 83.003906 211.9375 C 81.128906 208.578125 81.695312 209.148438 85.824219 214.765625 C 91.277344 222.183594 99.199219 227.722656 108.804688 230.832031 C 111.074219 231.566406 112.257812 232.179688 111.429688 232.191406 C 110.605469 232.203125 107.972656 231.410156 105.578125 230.425781 Z M 141.179688 227.289062 C 147.179688 224.089844 154.453125 217.019531 158.527344 210.429688 C 160.164062 207.785156 161.269531 206.300781 160.992188 207.125 C 159.714844 210.886719 155.277344 217.042969 151.007812 220.972656 C 146.871094 224.78125 138.59375 230.035156 136.828125 229.976562 C 136.472656 229.964844 138.429688 228.757812 141.179688 227.289062 Z M 117.992188 227.960938 C 119.128906 227.789062 120.984375 227.789062 122.117188 227.960938 C 123.253906 228.132812 122.324219 228.273438 120.054688 228.273438 C 117.789062 228.273438 116.859375 228.132812 117.992188 227.960938 Z M 112.757812 227.230469 C 113.488281 227.039062 114.5 227.050781 115.007812 227.257812 C 115.515625 227.460938 114.917969 227.617188 113.679688 227.601562 C 112.445312 227.585938 112.027344 227.417969 112.757812 227.230469 Z M 126.257812 227.230469 C 126.988281 227.039062 128 227.050781 128.507812 227.257812 C 129.015625 227.460938 128.417969 227.617188 127.179688 227.601562 C 125.945312 227.585938 125.527344 227.417969 126.257812 227.230469 Z M 108.054688 226.25 C 106.683594 225.363281 107.871094 225.363281 109.929688 226.25 C 110.921875 226.675781 111.046875 226.90625 110.304688 226.933594 C 109.6875 226.957031 108.675781 226.648438 108.054688 226.25 Z M 130.414062 226.488281 C 130.957031 226.269531 131.605469 226.296875 131.851562 226.546875 C 132.101562 226.796875 131.660156 226.972656 130.867188 226.941406 C 129.996094 226.902344 129.816406 226.726562 130.414062 226.488281 Z M 100.886719 222.828125 C 98.4375 221.359375 95.121094 218.910156 93.523438 217.390625 C 90.484375 214.5 84.792969 206.363281 84.824219 204.945312 C 84.832031 204.492188 85.910156 205.980469 87.21875 208.25 C 90.359375 213.691406 96.902344 220.042969 102.453125 223.042969 C 104.917969 224.371094 106.574219 225.46875 106.136719 225.480469 C 105.699219 225.492188 103.339844 224.296875 100.886719 222.828125 Z M 139.03125 223.054688 C 144.167969 220.1875 150.871094 213.8125 153.546875 209.246094 C 155.988281 205.082031 156.707031 204.996094 154.417969 209.144531 C 151.953125 213.609375 145.144531 220.355469 140.304688 223.125 C 138.039062 224.421875 135.84375 225.484375 135.429688 225.484375 C 135.019531 225.484375 136.640625 224.386719 139.03125 223.054688 Z M 169.832031 219.941406 C 171.535156 217.308594 173.042969 215.261719 173.179688 215.390625 C 173.523438 215.710938 168.363281 223.722656 167.457031 224.28125 C 167.058594 224.527344 168.128906 222.574219 169.832031 219.941406 Z M 117.601562 223.457031 C 118.933594 223.292969 121.296875 223.289062 122.851562 223.453125 C 124.40625 223.613281 123.320312 223.75 120.429688 223.753906 C 117.542969 223.757812 116.269531 223.625 117.601562 223.457031 Z M 112.414062 222.738281 C 112.957031 222.519531 113.605469 222.546875 113.851562 222.796875 C 114.101562 223.046875 113.660156 223.222656 112.867188 223.191406 C 111.996094 223.152344 111.816406 222.976562 112.414062 222.738281 Z M 128.164062 222.738281 C 128.707031 222.519531 129.355469 222.546875 129.601562 222.796875 C 129.851562 223.046875 129.410156 223.222656 128.617188 223.191406 C 127.746094 223.152344 127.566406 222.976562 128.164062 222.738281 Z M 136.554688 219.453125 C 138.824219 218.207031 142.539062 215.429688 144.804688 213.28125 L 148.929688 209.375 L 144.804688 213.746094 C 142.539062 216.152344 139.089844 218.9375 137.144531 219.933594 C 132.09375 222.527344 131.640625 222.15625 136.554688 219.453125 Z M 121.988281 218.03125 C 132.148438 217.113281 139.261719 213.125 145.46875 204.875 L 147.164062 202.625 L 145.796875 205.144531 C 143.84375 208.75 137.917969 213.851562 132.964844 216.195312 C 129.515625 217.824219 127.425781 218.25 121.945312 218.429688 L 115.179688 218.648438 Z M 99.710938 216.6875 C 98.777344 215.496094 98.804688 215.46875 99.992188 216.402344 C 100.714844 216.96875 101.304688 217.558594 101.304688 217.714844 C 101.304688 218.332031 100.691406 217.9375 99.710938 216.6875 Z M 112.414062 217.488281 C 112.957031 217.269531 113.605469 217.296875 113.851562 217.546875 C 114.101562 217.796875 113.660156 217.972656 112.867188 217.941406 C 111.996094 217.902344 111.816406 217.726562 112.414062 217.488281 Z M 76.554688 215.75 C 76.113281 214.925781 75.921875 214.25 76.128906 214.25 C 76.335938 214.25 76.863281 214.925781 77.304688 215.75 C 77.746094 216.574219 77.941406 217.25 77.734375 217.25 C 77.527344 217.25 76.996094 216.574219 76.554688 215.75 Z M 106.554688 215.3125 C 102.804688 213.183594 99.003906 209.785156 96.566406 206.375 C 95.679688 205.136719 96.976562 206.183594 99.445312 208.703125 C 101.917969 211.222656 105.625 214.160156 107.6875 215.230469 C 109.746094 216.304688 111.09375 217.191406 110.679688 217.207031 C 110.269531 217.21875 108.414062 216.367188 106.554688 215.3125 Z M 70.894531 214.179688 C 70.234375 212.902344 69.828125 211.726562 69.992188 211.5625 C 70.15625 211.402344 70.847656 212.445312 71.535156 213.882812 C 73.078125 217.117188 72.542969 217.367188 70.894531 214.179688 Z M 96.355469 214.0625 C 93.070312 210.273438 92.09375 209 92.476562 209 C 92.695312 209 94.121094 210.519531 95.640625 212.375 C 98.457031 215.8125 99.015625 217.132812 96.355469 214.0625 Z M 74.273438 211.933594 C 73.8125 211.074219 73.574219 210.230469 73.75 210.058594 C 73.921875 209.882812 74.449219 210.589844 74.917969 211.621094 C 75.953125 213.890625 75.449219 214.132812 74.273438 211.933594 Z M 174.078125 212.375 C 174.078125 211.960938 174.40625 211.117188 174.804688 210.5 C 175.207031 209.878906 175.535156 209.710938 175.535156 210.125 C 175.535156 210.535156 175.207031 211.378906 174.804688 212 C 174.40625 212.617188 174.078125 212.785156 174.078125 212.375 Z M 65.773438 210.09375 C 65.050781 208.210938 65.265625 207.722656 66.148438 209.242188 C 66.585938 209.996094 66.785156 210.769531 66.59375 210.960938 C 66.398438 211.15625 66.03125 210.765625 65.773438 210.09375 Z M 72.523438 207.84375 C 71.800781 205.960938 72.015625 205.472656 72.898438 206.992188 C 73.335938 207.746094 73.535156 208.519531 73.34375 208.710938 C 73.148438 208.90625 72.78125 208.515625 72.523438 207.84375 Z M 115.375 205.683594 C 111.476562 204.289062 109.210938 202.691406 107.085938 199.828125 C 103.261719 194.679688 102.5 187.773438 105.121094 182 C 108.246094 175.105469 113.171875 171.945312 120.863281 171.902344 C 125.074219 171.878906 126.335938 172.207031 129.46875 174.144531 C 134.40625 177.195312 137.308594 181.964844 137.847656 187.902344 C 138.203125 191.800781 137.976562 193.019531 136.265625 196.519531 C 132.308594 204.609375 123.363281 208.53125 115.375 205.683594 Z M 125.003906 195.105469 C 129.539062 192.253906 128.769531 185.039062 123.660156 182.527344 C 121.183594 181.308594 120.667969 181.285156 118.296875 182.277344 C 114.71875 183.773438 112.996094 186.558594 113.550781 189.957031 C 114.074219 193.199219 115.210938 194.667969 118.179688 195.953125 C 120.546875 196.976562 122.390625 196.746094 125.003906 195.105469 Z M 118.960938 191.03125 C 117.03125 188.898438 117.753906 186.917969 120.5625 186.644531 C 122.402344 186.464844 123.035156 186.753906 123.414062 187.949219 C 124.378906 190.984375 121.019531 193.308594 118.960938 191.03125 Z M 63.535156 203.589844 C 63.285156 202.648438 63.105469 201.199219 63.140625 200.375 C 63.175781 199.550781 63.515625 200.191406 63.894531 201.800781 C 64.625 204.917969 64.3125 206.484375 63.535156 203.589844 Z M 156.078125 204.875 C 156.078125 204.460938 156.40625 203.617188 156.804688 203 C 157.207031 202.378906 157.535156 202.210938 157.535156 202.625 C 157.535156 203.035156 157.207031 203.878906 156.804688 204.5 C 156.40625 205.117188 156.078125 205.285156 156.078125 204.875 Z M 161.371094 204.875 C 161.449219 203.453125 162.699219 201.0625 162.742188 202.25 C 162.765625 202.867188 162.457031 203.878906 162.054688 204.5 C 161.65625 205.117188 161.347656 205.285156 161.371094 204.875 Z M 88.902344 203.699219 C 88.628906 203.257812 88.566406 202.738281 88.761719 202.542969 C 88.960938 202.34375 89.320312 202.707031 89.566406 203.34375 C 90.070312 204.664062 89.640625 204.894531 88.902344 203.699219 Z M 177.117188 203.3125 C 177.152344 202.4375 177.328125 202.261719 177.570312 202.859375 C 177.785156 203.398438 177.757812 204.046875 177.507812 204.296875 C 177.261719 204.546875 177.082031 204.101562 177.117188 203.3125 Z M 83.773438 202.59375 C 83.515625 201.925781 83.328125 200.980469 83.355469 200.5 C 83.378906 200.019531 83.726562 200.433594 84.121094 201.421875 C 84.515625 202.410156 84.703125 203.351562 84.539062 203.515625 C 84.375 203.679688 84.03125 203.265625 83.773438 202.59375 Z M 70.617188 201.8125 C 70.652344 200.9375 70.828125 200.761719 71.070312 201.359375 C 71.285156 201.898438 71.257812 202.546875 71.007812 202.796875 C 70.761719 203.046875 70.582031 202.601562 70.617188 201.8125 Z M 152.425781 202.625 C 152.421875 202.210938 152.875 200.691406 153.429688 199.25 C 153.988281 197.804688 154.453125 197.128906 154.464844 197.75 C 154.476562 198.367188 154.023438 199.886719 153.457031 201.125 C 152.890625 202.363281 152.425781 203.035156 152.425781 202.625 Z M 170.367188 201.0625 C 170.402344 200.1875 170.578125 200.011719 170.820312 200.609375 C 171.035156 201.148438 171.007812 201.796875 170.757812 202.046875 C 170.511719 202.296875 170.332031 201.851562 170.367188 201.0625 Z M 66.175781 200 C 66.175781 198.96875 66.34375 198.546875 66.554688 199.0625 C 66.761719 199.578125 66.761719 200.421875 66.554688 200.9375 C 66.34375 201.453125 66.175781 201.03125 66.175781 200 Z M 87.523438 200.34375 C 87.265625 199.675781 87.078125 198.730469 87.105469 198.25 C 87.128906 197.769531 87.476562 198.183594 87.871094 199.171875 C 88.265625 200.160156 88.453125 201.101562 88.289062 201.265625 C 88.125 201.429688 87.78125 201.015625 87.523438 200.34375 Z M 174.953125 199.625 C 174.96875 198.386719 175.136719 197.972656 175.324219 198.699219 C 175.515625 199.429688 175.503906 200.441406 175.296875 200.949219 C 175.09375 201.457031 174.9375 200.863281 174.953125 199.625 Z M 73.675781 199.25 C 73.675781 198.21875 73.84375 197.796875 74.054688 198.3125 C 74.261719 198.828125 74.261719 199.671875 74.054688 200.1875 C 73.84375 200.703125 73.675781 200.28125 73.675781 199.25 Z M 78.117188 199.5625 C 78.152344 198.6875 78.328125 198.511719 78.570312 199.109375 C 78.785156 199.648438 78.757812 200.296875 78.507812 200.546875 C 78.261719 200.796875 78.082031 200.351562 78.117188 199.5625 Z M 162.867188 199.5625 C 162.902344 198.6875 163.078125 198.511719 163.320312 199.109375 C 163.535156 199.648438 163.507812 200.296875 163.257812 200.546875 C 163.011719 200.796875 162.832031 200.351562 162.867188 199.5625 Z M 177.867188 199.5625 C 177.902344 198.6875 178.078125 198.511719 178.320312 199.109375 C 178.535156 199.648438 178.507812 200.296875 178.257812 200.546875 C 178.011719 200.796875 177.832031 200.351562 177.867188 199.5625 Z M 69.953125 198.125 C 69.96875 196.886719 70.136719 196.472656 70.324219 197.199219 C 70.515625 197.929688 70.503906 198.941406 70.296875 199.449219 C 70.09375 199.957031 69.9375 199.363281 69.953125 198.125 Z M 82.617188 198.0625 C 82.652344 197.1875 82.828125 197.011719 83.070312 197.609375 C 83.285156 198.148438 83.257812 198.796875 83.007812 199.046875 C 82.761719 199.296875 82.582031 198.851562 82.617188 198.0625 Z M 158.367188 198.0625 C 158.402344 197.1875 158.578125 197.011719 158.820312 197.609375 C 159.035156 198.148438 159.007812 198.796875 158.757812 199.046875 C 158.511719 199.296875 158.332031 198.851562 158.367188 198.0625 Z M 171.246094 195.875 C 171.253906 194.222656 171.40625 193.636719 171.585938 194.570312 C 171.765625 195.503906 171.757812 196.851562 171.570312 197.570312 C 171.382812 198.289062 171.238281 197.523438 171.246094 195.875 Z M 77.097656 194.457031 C 76.800781 192.441406 76.601562 189.066406 76.65625 186.957031 C 76.742188 183.648438 76.84375 183.945312 77.410156 189.125 C 78.15625 195.957031 77.917969 200.007812 77.097656 194.457031 Z M 62.585938 189.125 C 62.589844 184.585938 62.710938 182.828125 62.863281 185.214844 C 63.011719 187.601562 63.007812 191.3125 62.859375 193.464844 C 62.707031 195.613281 62.585938 193.660156 62.585938 189.125 Z M 65.585938 189.125 C 65.589844 184.585938 65.710938 182.828125 65.863281 185.214844 C 66.011719 187.601562 66.007812 191.3125 65.859375 193.464844 C 65.707031 195.613281 65.585938 193.660156 65.585938 189.125 Z M 73.085938 189.125 C 73.089844 184.585938 73.210938 182.828125 73.363281 185.214844 C 73.511719 187.601562 73.507812 191.3125 73.359375 193.464844 C 73.207031 195.613281 73.085938 193.660156 73.085938 189.125 Z M 91.195312 192.3125 C 90.929688 189.734375 91.035156 186.273438 91.433594 184.625 C 92.054688 182.046875 92.167969 182.710938 92.230469 189.3125 C 92.273438 193.539062 92.164062 197 91.992188 197 C 91.816406 197 91.457031 194.890625 91.195312 192.3125 Z M 163.839844 188.75 C 163.839844 184.003906 163.960938 182.066406 164.109375 184.4375 C 164.257812 186.808594 164.257812 190.691406 164.109375 193.0625 C 163.960938 195.433594 163.839844 193.492188 163.839844 188.75 Z M 81.953125 194.375 C 81.96875 193.136719 82.136719 192.722656 82.324219 193.449219 C 82.515625 194.179688 82.503906 195.191406 82.296875 195.699219 C 82.09375 196.207031 81.9375 195.613281 81.953125 194.375 Z M 86.453125 194.375 C 86.46875 193.136719 86.636719 192.722656 86.824219 193.449219 C 87.015625 194.179688 87.003906 195.191406 86.796875 195.699219 C 86.59375 196.207031 86.4375 195.613281 86.453125 194.375 Z M 149.578125 189.5 C 149.578125 185.582031 149.703125 183.976562 149.859375 185.9375 C 150.011719 187.894531 150.011719 191.101562 149.859375 193.0625 C 149.703125 195.019531 149.578125 193.417969 149.578125 189.5 Z M 178.832031 188.75 C 178.832031 184.417969 178.957031 182.644531 179.109375 184.8125 C 179.261719 186.976562 179.261719 190.519531 179.109375 192.6875 C 178.957031 194.851562 178.832031 193.082031 178.832031 188.75 Z M 154.730469 193.25 C 154.730469 191.804688 154.882812 191.214844 155.074219 191.9375 C 155.261719 192.660156 155.261719 193.839844 155.074219 194.5625 C 154.882812 195.285156 154.730469 194.691406 154.730469 193.25 Z M 159.324219 189.125 C 159.320312 185.410156 159.445312 183.796875 159.605469 185.539062 C 159.761719 187.28125 159.761719 190.316406 159.609375 192.289062 C 159.453125 194.261719 159.324219 192.835938 159.324219 189.125 Z M 69.453125 187.25 C 69.625 182.917969 70.101562 178.363281 70.507812 177.125 C 71.160156 175.152344 71.203125 175.292969 70.851562 178.25 C 70.628906 180.105469 70.15625 184.660156 69.796875 188.375 L 69.140625 195.125 Z M 168.117188 192.0625 C 168.152344 191.1875 168.328125 191.011719 168.570312 191.609375 C 168.785156 192.148438 168.757812 192.796875 168.507812 193.046875 C 168.261719 193.296875 168.082031 192.851562 168.117188 192.0625 Z M 171.476562 186.6875 C 171.199219 183.488281 170.824219 179.691406 170.644531 178.25 C 170.34375 175.847656 170.375 175.800781 170.992188 177.671875 C 171.773438 180.035156 172.921875 192.5 172.359375 192.5 C 172.152344 192.5 171.753906 189.882812 171.476562 186.6875 Z M 175.617188 189.0625 C 175.652344 188.1875 175.828125 188.011719 176.070312 188.609375 C 176.285156 189.148438 176.257812 189.796875 176.007812 190.046875 C 175.761719 190.296875 175.582031 189.851562 175.617188 189.0625 Z M 154.746094 185.375 C 154.753906 183.722656 154.90625 183.136719 155.085938 184.070312 C 155.265625 185.003906 155.257812 186.351562 155.070312 187.070312 C 154.882812 187.789062 154.738281 187.023438 154.746094 185.375 Z M 168.117188 186.0625 C 168.152344 185.1875 168.328125 185.011719 168.570312 185.609375 C 168.785156 186.148438 168.757812 186.796875 168.507812 187.046875 C 168.261719 187.296875 168.082031 186.851562 168.117188 186.0625 Z M 81.953125 183.875 C 81.96875 182.636719 82.136719 182.222656 82.324219 182.949219 C 82.515625 183.679688 82.503906 184.691406 82.296875 185.199219 C 82.09375 185.707031 81.9375 185.113281 81.953125 183.875 Z M 86.425781 183.5 C 86.425781 182.46875 86.59375 182.046875 86.804688 182.5625 C 87.011719 183.078125 87.011719 183.921875 86.804688 184.4375 C 86.59375 184.953125 86.425781 184.53125 86.425781 183.5 Z M 77.375 180.875 C 77.308594 178.195312 80.769531 169.5625 83.644531 165.226562 C 88.535156 157.863281 98.699219 149.640625 105.054688 147.90625 C 106.085938 147.625 104.398438 148.679688 101.304688 150.246094 C 90.886719 155.527344 82.019531 166.367188 78.707031 177.875 C 77.996094 180.347656 77.394531 181.699219 77.375 180.875 Z M 158.367188 180.8125 C 158.402344 179.9375 158.578125 179.761719 158.820312 180.359375 C 159.035156 180.898438 159.007812 181.546875 158.757812 181.796875 C 158.511719 182.046875 158.332031 181.601562 158.367188 180.8125 Z M 153.867188 180.0625 C 153.902344 179.1875 154.078125 179.011719 154.320312 179.609375 C 154.535156 180.148438 154.507812 180.796875 154.257812 181.046875 C 154.011719 181.296875 153.832031 180.851562 153.867188 180.0625 Z M 167.425781 179.75 C 167.425781 178.71875 167.59375 178.296875 167.804688 178.8125 C 168.011719 179.328125 168.011719 180.171875 167.804688 180.6875 C 167.59375 181.203125 167.425781 180.78125 167.425781 179.75 Z M 174.535156 177.773438 C 174.269531 175.835938 174.195312 174.109375 174.371094 173.933594 C 174.550781 173.757812 174.929688 175.175781 175.214844 177.089844 C 175.503906 179.003906 175.574219 180.730469 175.375 180.929688 C 175.179688 181.128906 174.796875 179.707031 174.535156 177.773438 Z M 66.175781 179 C 66.175781 177.96875 66.34375 177.546875 66.554688 178.0625 C 66.761719 178.578125 66.761719 179.421875 66.554688 179.9375 C 66.34375 180.453125 66.175781 180.03125 66.175781 179 Z M 73.675781 179 C 73.675781 177.96875 73.84375 177.546875 74.054688 178.0625 C 74.261719 178.578125 74.261719 179.421875 74.054688 179.9375 C 73.84375 180.453125 73.675781 180.03125 73.675781 179 Z M 82.617188 179.3125 C 82.652344 178.4375 82.828125 178.261719 83.070312 178.859375 C 83.285156 179.398438 83.257812 180.046875 83.007812 180.296875 C 82.761719 180.546875 82.582031 180.101562 82.617188 179.3125 Z M 87.074219 179.679688 C 87.011719 175.511719 96.429688 162.773438 101.472656 160.203125 C 102.535156 159.664062 102.1875 160.203125 100.554688 161.636719 C 99.113281 162.902344 97.71875 163.953125 97.460938 163.96875 C 96.335938 164.042969 90.5 172.582031 88.875 176.542969 C 87.894531 178.925781 87.082031 180.335938 87.074219 179.679688 Z M 177.925781 178.25 C 177.925781 177.21875 178.09375 176.796875 178.304688 177.3125 C 178.511719 177.828125 178.511719 178.671875 178.304688 179.1875 C 178.09375 179.703125 177.925781 179.28125 177.925781 178.25 Z M 63.109375 177.4375 C 63.136719 176.441406 63.46875 174.949219 63.839844 174.125 C 64.316406 173.078125 64.382812 173.535156 64.0625 175.625 C 63.535156 179.105469 63.03125 180.058594 63.109375 177.4375 Z M 83.726562 176 C 84.777344 172.042969 88.292969 166.695312 92.902344 162.039062 C 97.246094 157.652344 104.285156 152.742188 106.179688 152.777344 C 106.59375 152.785156 104.984375 153.847656 102.601562 155.140625 C 96.925781 158.21875 88.652344 166.960938 85.601562 173.101562 C 84.296875 175.726562 83.453125 177.03125 83.726562 176 Z M 165.890625 174.421875 C 163.238281 165.375 155.023438 155.007812 145.648438 148.871094 C 142.605469 146.878906 140.417969 145.25 140.789062 145.25 C 142.1875 145.25 150.257812 151.082031 154.3125 155.027344 C 156.632812 157.28125 159.820312 161.101562 161.394531 163.515625 C 164.332031 168.019531 167.558594 175.613281 167.109375 176.960938 C 166.972656 177.375 166.425781 176.234375 165.890625 174.421875 Z M 74.398438 176 C 74.382812 175.378906 74.835938 173.863281 75.402344 172.625 C 76.730469 169.726562 76.75 171.074219 75.429688 174.5 C 74.875 175.941406 74.410156 176.617188 74.398438 176 Z M 66.867188 174.8125 C 66.902344 173.9375 67.078125 173.761719 67.320312 174.359375 C 67.535156 174.898438 67.507812 175.546875 67.257812 175.796875 C 67.011719 176.046875 66.832031 175.601562 66.867188 174.8125 Z M 161.003906 172.707031 C 158.253906 165.511719 152.015625 158.144531 143.277344 151.777344 C 141.503906 150.484375 141.53125 150.484375 144.054688 151.777344 C 149.027344 154.328125 157.078125 163.148438 160.175781 169.445312 C 161.753906 172.644531 162.867188 175.4375 162.65625 175.648438 C 162.445312 175.859375 161.699219 174.535156 161.003906 172.707031 Z M 177.117188 174.8125 C 177.152344 173.9375 177.328125 173.761719 177.570312 174.359375 C 177.785156 174.898438 177.757812 175.546875 177.507812 175.796875 C 177.261719 176.046875 177.082031 175.601562 177.117188 174.8125 Z M 95.816406 173.171875 C 96.546875 171.824219 98.492188 169.460938 100.132812 167.921875 L 103.121094 165.125 L 100.152344 168.5 C 98.519531 170.355469 96.574219 172.71875 95.835938 173.75 C 94.535156 175.558594 94.535156 175.539062 95.816406 173.171875 Z M 145.191406 173.28125 C 144.480469 172.199219 144.269531 171.542969 144.722656 171.824219 C 145.589844 172.359375 147.335938 175.25 146.792969 175.25 C 146.621094 175.25 145.898438 174.363281 145.191406 173.28125 Z M 169.617188 174.0625 C 169.652344 173.1875 169.828125 173.011719 170.070312 173.609375 C 170.285156 174.148438 170.257812 174.796875 170.007812 175.046875 C 169.761719 175.296875 169.582031 174.851562 169.617188 174.0625 Z M 168.523438 171.09375 C 167.800781 169.210938 168.015625 168.722656 168.898438 170.242188 C 169.335938 170.996094 169.535156 171.769531 169.34375 171.960938 C 169.148438 172.15625 168.78125 171.765625 168.523438 171.09375 Z M 142.109375 169.160156 C 139.757812 166.550781 134.441406 163.1875 130.308594 161.699219 C 128.175781 160.929688 127.042969 160.292969 127.789062 160.277344 C 130.230469 160.226562 137.175781 164.011719 140.84375 167.386719 C 142.816406 169.203125 144.230469 170.703125 143.984375 170.71875 C 143.738281 170.734375 142.894531 170.035156 142.109375 169.160156 Z M 172.273438 169.59375 C 171.550781 167.710938 171.765625 167.222656 172.648438 168.742188 C 173.085938 169.496094 173.285156 170.269531 173.09375 170.460938 C 172.898438 170.65625 172.53125 170.265625 172.273438 169.59375 Z M 65.328125 169.625 C 65.328125 169.210938 65.65625 168.367188 66.054688 167.75 C 66.457031 167.128906 66.785156 166.960938 66.785156 167.375 C 66.785156 167.785156 66.457031 168.628906 66.054688 169.25 C 65.65625 169.867188 65.328125 170.035156 65.328125 169.625 Z M 72.816406 169.695312 C 72.8125 169.324219 74.027344 166.835938 75.515625 164.171875 C 78.800781 158.300781 87.167969 149.316406 92.894531 145.515625 C 97.742188 142.296875 106.824219 138.527344 109.554688 138.601562 C 110.996094 138.636719 110.804688 138.796875 108.742188 139.289062 C 95.90625 142.328125 82.644531 152.667969 75.839844 164.9375 C 74.183594 167.925781 72.820312 170.070312 72.816406 169.695312 Z M 76.574219 169.722656 C 76.5625 169.363281 77.71875 167.160156 79.136719 164.824219 C 82.339844 159.550781 89.511719 152.121094 94.734375 148.667969 C 98.78125 145.988281 107.824219 142.234375 110.136719 142.269531 C 110.847656 142.277344 108.972656 143.125 105.964844 144.148438 C 102.960938 145.171875 98.351562 147.371094 95.722656 149.03125 C 90.042969 152.613281 82.269531 160.628906 78.960938 166.304688 C 77.65625 168.542969 76.582031 170.082031 76.574219 169.722656 Z M 145.894531 166.152344 C 144.265625 164.449219 140.9375 161.75 138.503906 160.152344 C 136.066406 158.554688 134.351562 157.25 134.6875 157.25 C 136.046875 157.25 142.40625 161.902344 145.902344 165.460938 C 147.949219 167.546875 149.453125 169.25 149.242188 169.25 C 149.03125 169.25 147.527344 167.855469 145.894531 166.152344 Z M 165.046875 163.789062 C 163.609375 161.261719 159.570312 156.308594 156.074219 152.78125 C 152.578125 149.257812 151.117188 147.476562 152.824219 148.824219 C 157.457031 152.480469 163.144531 158.96875 165.832031 163.667969 C 167.144531 165.960938 168.09375 167.960938 167.941406 168.113281 C 167.789062 168.265625 166.488281 166.320312 165.046875 163.789062 Z M 69.828125 166.625 C 69.816406 165.367188 74.074219 158.371094 75.546875 157.226562 C 76.875 156.195312 76.878906 156.210938 75.628906 157.683594 C 74.914062 158.527344 73.320312 161.050781 72.082031 163.296875 C 70.84375 165.539062 69.832031 167.035156 69.828125 166.625 Z M 66.8125 165.8125 C 66.820312 164.9375 71.210938 157.25 71.703125 157.25 C 71.90625 157.25 70.996094 159.191406 69.679688 161.5625 C 66.90625 166.570312 66.804688 166.722656 66.8125 165.8125 Z M 146.304688 160.816406 C 143.210938 157.863281 141.695312 156.164062 142.929688 157.039062 C 145.140625 158.601562 152.957031 166.28125 152.277344 166.21875 C 152.085938 166.199219 149.398438 163.769531 146.304688 160.816406 Z M 172.664062 162.6875 C 171.847656 160.773438 171.863281 160.730469 172.917969 162.082031 C 173.542969 162.878906 174.054688 163.808594 174.054688 164.144531 C 174.054688 165.28125 173.546875 164.75 172.664062 162.6875 Z M 106.210938 163.203125 C 106.660156 162.472656 113.234375 159.925781 113.625 160.328125 C 113.785156 160.492188 112.097656 161.335938 109.878906 162.207031 C 107.664062 163.078125 106.011719 163.523438 106.210938 163.203125 Z M 167.027344 159.507812 C 163.84375 154.699219 155.535156 146.296875 150.933594 143.234375 C 148.59375 141.679688 143.980469 139.277344 140.679688 137.898438 C 137.382812 136.519531 135.695312 135.605469 136.929688 135.871094 C 141.261719 136.792969 150.054688 141.570312 155.46875 145.941406 C 159.96875 149.570312 166.71875 157.300781 169.117188 161.5625 C 170.332031 163.722656 168.855469 162.269531 167.027344 159.507812 Z M 117.601562 159.707031 C 118.933594 159.542969 121.296875 159.539062 122.851562 159.703125 C 124.40625 159.863281 123.320312 160 120.429688 160.003906 C 117.542969 160.007812 116.269531 159.875 117.601562 159.707031 Z M 169.453125 157.4375 C 168.503906 155.890625 166.367188 153.074219 164.707031 151.183594 C 162.183594 148.308594 162.300781 148.382812 165.429688 151.621094 C 168.8125 155.121094 172.441406 160.25 171.535156 160.25 C 171.339844 160.25 170.402344 158.984375 169.453125 157.4375 Z M 73.550781 154.25 C 77.347656 148.75 86.480469 140.730469 92.304688 137.769531 C 94.910156 136.445312 93.457031 137.65625 88.355469 141.0625 C 85.976562 142.652344 81.261719 146.859375 77.882812 150.414062 C 74.5 153.964844 72.550781 155.691406 73.550781 154.25 Z M 83.316406 148.90625 C 88.507812 143.789062 91.839844 141.191406 95.554688 139.363281 C 102.558594 135.921875 102.554688 136.710938 95.550781 140.320312 C 91.855469 142.21875 87.503906 145.441406 83.035156 149.585938 L 76.179688 155.9375 Z M 116.804688 154.804688 C 119.375 154.308594 122.148438 154.3125 125.054688 154.808594 C 129.25 155.527344 129.089844 155.554688 121.179688 155.554688 C 113.609375 155.550781 113.25 155.492188 116.804688 154.804688 Z M 137.304688 154.25 C 135.863281 153.457031 134.953125 152.796875 135.28125 152.78125 C 136.074219 152.738281 140.304688 154.9375 140.304688 155.394531 C 140.304688 155.882812 140.261719 155.867188 137.304688 154.25 Z M 110.164062 151.488281 C 110.707031 151.269531 111.355469 151.296875 111.601562 151.546875 C 111.851562 151.796875 111.410156 151.972656 110.617188 151.941406 C 109.746094 151.902344 109.566406 151.726562 110.164062 151.488281 Z M 130.414062 151.488281 C 130.957031 151.269531 131.605469 151.296875 131.851562 151.546875 C 132.101562 151.796875 131.660156 151.972656 130.867188 151.941406 C 129.996094 151.902344 129.816406 151.726562 130.414062 151.488281 Z M 113.507812 150.730469 C 114.238281 150.539062 115.25 150.550781 115.757812 150.757812 C 116.265625 150.960938 115.667969 151.117188 114.429688 151.101562 C 113.195312 151.085938 112.777344 150.917969 113.507812 150.730469 Z M 125.867188 150.753906 C 126.382812 150.542969 127.226562 150.542969 127.742188 150.753906 C 128.257812 150.960938 127.835938 151.128906 126.804688 151.128906 C 125.773438 151.128906 125.351562 150.960938 125.867188 150.753906 Z M 135.804688 148.25 C 135.1875 147.847656 135.019531 147.523438 135.429688 147.523438 C 135.84375 147.523438 136.6875 147.847656 137.304688 148.25 C 137.925781 148.648438 138.09375 148.976562 137.679688 148.976562 C 137.269531 148.976562 136.425781 148.648438 135.804688 148.25 Z M 108.429688 146.75 C 109.257812 146.394531 110.605469 146.113281 111.429688 146.125 C 112.636719 146.144531 112.5625 146.265625 111.054688 146.75 C 108.492188 147.570312 106.519531 147.570312 108.429688 146.75 Z M 132.664062 146.988281 C 133.207031 146.769531 133.855469 146.796875 134.101562 147.046875 C 134.351562 147.296875 133.910156 147.472656 133.117188 147.441406 C 132.246094 147.402344 132.066406 147.226562 132.664062 146.988281 Z M 128.867188 146.253906 C 129.382812 146.042969 130.226562 146.042969 130.742188 146.253906 C 131.257812 146.460938 130.835938 146.628906 129.804688 146.628906 C 128.773438 146.628906 128.351562 146.460938 128.867188 146.253906 Z M 158.25 144.6875 L 156.429688 142.625 L 158.492188 144.441406 C 160.421875 146.140625 160.898438 146.75 160.3125 146.75 C 160.175781 146.75 159.25 145.820312 158.25 144.6875 Z M 117.265625 145.445312 C 119.238281 145.292969 122.277344 145.292969 124.015625 145.453125 C 125.757812 145.609375 124.144531 145.734375 120.429688 145.734375 C 116.71875 145.730469 115.292969 145.601562 117.265625 145.449219 Z M 137.304688 144.5 C 136.6875 144.097656 136.519531 143.773438 136.929688 143.773438 C 137.34375 143.773438 138.1875 144.097656 138.804688 144.5 C 139.425781 144.898438 139.59375 145.226562 139.179688 145.226562 C 138.769531 145.226562 137.925781 144.898438 137.304688 144.5 Z M 143.679688 143.589844 C 142.03125 142.710938 138.320312 141.191406 135.429688 140.214844 C 131.464844 138.871094 130.898438 138.527344 133.109375 138.8125 C 135.921875 139.175781 147.054688 143.988281 147.054688 144.835938 C 147.054688 145.390625 147.101562 145.40625 143.679688 143.589844 Z M 154.460938 141.6875 C 153.527344 140.496094 153.554688 140.46875 154.742188 141.402344 C 155.464844 141.96875 156.054688 142.558594 156.054688 142.714844 C 156.054688 143.332031 155.441406 142.9375 154.460938 141.6875 Z M 112.757812 141.730469 C 113.488281 141.539062 114.5 141.550781 115.007812 141.757812 C 115.515625 141.960938 114.917969 142.117188 113.679688 142.101562 C 112.445312 142.085938 112.027344 141.917969 112.757812 141.730469 Z M 126.617188 141.753906 C 127.132812 141.542969 127.976562 141.542969 128.492188 141.753906 C 129.007812 141.960938 128.585938 142.128906 127.554688 142.128906 C 126.523438 142.128906 126.101562 141.960938 126.617188 141.753906 Z M 151.136719 139.582031 C 149.738281 138.460938 149.75 138.449219 151.367188 139.234375 C 152.296875 139.683594 153.054688 140.207031 153.054688 140.402344 C 153.054688 140.972656 152.667969 140.808594 151.136719 139.582031 Z M 116.519531 137.945312 C 118.90625 137.792969 122.621094 137.796875 124.769531 137.945312 C 126.921875 138.097656 124.96875 138.21875 120.429688 138.21875 C 115.894531 138.21875 114.132812 138.09375 116.519531 137.945312 Z M 145.554688 136.625 C 144.523438 136.035156 144.039062 135.539062 144.476562 135.527344 C 144.914062 135.511719 145.925781 135.996094 146.726562 136.601562 C 148.578125 138 147.984375 138.011719 145.554688 136.625 Z M 96.804688 135.5 C 97.425781 135.097656 98.269531 134.773438 98.679688 134.773438 C 99.09375 134.773438 98.925781 135.097656 98.304688 135.5 C 97.6875 135.898438 96.84375 136.226562 96.429688 136.226562 C 96.019531 136.226562 96.1875 135.898438 96.804688 135.5 Z M 104.914062 135.738281 C 105.457031 135.519531 106.105469 135.546875 106.351562 135.796875 C 106.601562 136.046875 106.160156 136.222656 105.367188 136.191406 C 104.496094 136.152344 104.316406 135.976562 104.914062 135.738281 Z M 107.914062 134.988281 C 108.457031 134.769531 109.105469 134.796875 109.351562 135.046875 C 109.601562 135.296875 109.160156 135.472656 108.367188 135.441406 C 107.496094 135.402344 107.316406 135.226562 107.914062 134.988281 Z M 131.867188 135.003906 C 132.382812 134.792969 133.226562 134.792969 133.742188 135.003906 C 134.257812 135.210938 133.835938 135.378906 132.804688 135.378906 C 131.773438 135.378906 131.351562 135.210938 131.867188 135.003906 Z M 136.554688 133.578125 C 133.460938 132.621094 131.488281 131.820312 132.164062 131.796875 C 133.632812 131.742188 143.304688 134.65625 143.304688 135.15625 C 143.304688 135.632812 142.917969 135.542969 136.554688 133.578125 Z M 100.554688 134 C 101.175781 133.597656 102.1875 133.289062 102.804688 133.3125 C 103.546875 133.339844 103.421875 133.574219 102.429688 134 C 100.371094 134.886719 99.183594 134.886719 100.554688 134 Z M 111.992188 134.230469 C 112.714844 134.042969 113.898438 134.042969 114.617188 134.230469 C 115.339844 134.421875 114.75 134.574219 113.304688 134.574219 C 111.863281 134.574219 111.273438 134.421875 111.992188 134.230469 Z M 126.992188 134.230469 C 127.714844 134.042969 128.898438 134.042969 129.617188 134.230469 C 130.339844 134.421875 129.75 134.574219 128.304688 134.574219 C 126.863281 134.574219 126.273438 134.421875 126.992188 134.230469 Z M 107.914062 131.988281 C 108.457031 131.769531 109.105469 131.796875 109.351562 132.046875 C 109.601562 132.296875 109.160156 132.472656 108.367188 132.441406 C 107.496094 132.402344 107.316406 132.226562 107.914062 131.988281 Z M 112.378906 131.21875 C 113.308594 131.039062 114.660156 131.046875 115.378906 131.234375 C 116.09375 131.421875 115.332031 131.570312 113.679688 131.558594 C 112.03125 131.550781 111.445312 131.398438 112.378906 131.21875 Z M 125.867188 131.21875 C 126.796875 131.042969 128.316406 131.042969 129.242188 131.21875 C 130.171875 131.398438 129.414062 131.546875 127.554688 131.546875 C 125.699219 131.546875 124.941406 131.398438 125.867188 131.21875 Z M 228.128906 248.226562 C 228.550781 247.804688 229.050781 235.582031 229.328125 218.84375 C 229.585938 203.082031 230.023438 190.046875 230.300781 189.878906 C 230.578125 189.707031 240.132812 202.125 251.535156 217.472656 C 262.9375 232.816406 272.929688 246.21875 273.742188 247.25 C 275.214844 249.117188 275.265625 249.125 287.976562 249.125 C 297.445312 249.125 300.980469 248.875 301.707031 248.148438 C 302.488281 247.367188 302.679688 236.042969 302.679688 190.648438 C 302.679688 159.558594 302.40625 133.847656 302.070312 133.511719 C 300.984375 132.429688 276.273438 132.738281 275.160156 133.847656 C 274.402344 134.605469 274.121094 140.828125 273.914062 161.410156 C 273.769531 176.035156 273.371094 188 273.027344 188 C 272.40625 188 264.96875 178.039062 243.945312 149.03125 C 234.273438 135.6875 232.492188 133.605469 230.253906 133.023438 C 226.300781 132 202.089844 132.664062 200.925781 133.828125 C 200.183594 134.574219 199.921875 144.753906 199.734375 180.328125 C 199.601562 205.378906 199.761719 230.9375 200.089844 237.125 L 200.679688 248.375 L 203.679688 248.878906 C 207.976562 249.601562 227.269531 249.085938 228.128906 248.226562 Z M 228.128906 248.226562 "/>
<path style=" stroke:none;fill-rule:nonzero;fill:rgb(9.803922%,25.098041%,25.882354%);fill-opacity:1;" d="M 173.003906 374.550781 C 151.144531 372.058594 137 368.757812 120.464844 362.292969 C 65.335938 340.738281 24.402344 296.359375 8.066406 240.429688 C 2.222656 220.425781 0 202.953125 0.730469 182.785156 C 1.804688 153.148438 8.289062 128.039062 21.347656 102.933594 C 30.957031 84.46875 42.714844 68.640625 57.179688 54.695312 C 80.648438 32.070312 107.164062 16.890625 137.976562 8.445312 C 195.632812 -7.355469 258.199219 5.753906 304.683594 43.382812 C 307.691406 45.816406 313.839844 51.503906 318.34375 56.019531 C 346.347656 84.097656 361.605469 112.617188 370.78125 154.019531 C 372.671875 162.554688 372.808594 164.378906 373.089844 184.914062 C 373.421875 209.101562 373.113281 212.625 369.1875 229.113281 C 362.171875 258.570312 350.292969 283.453125 333.082031 304.746094 C 326.847656 312.457031 311.558594 327.648438 303.953125 333.6875 C 278.71875 353.726562 249.257812 367.015625 218.847656 372.074219 C 204.382812 374.484375 182.691406 375.65625 173.003906 374.550781 Z M 129.5625 253.886719 C 150.574219 251.726562 169.699219 237.988281 179.554688 217.964844 C 184.625 207.664062 185.957031 201.636719 185.957031 188.988281 C 185.957031 176.46875 184.648438 170.46875 179.667969 160.171875 C 172.121094 144.566406 157.742188 132.085938 140.539062 126.21875 C 134.085938 124.015625 113.753906 123.328125 105.71875 125.039062 C 99.570312 126.347656 90.09375 130.617188 83.722656 134.941406 C 73.511719 141.875 63.851562 153.894531 59.574219 164.992188 C 56.40625 173.203125 55.914062 176.601562 55.914062 190.144531 C 55.914062 200.949219 56.089844 202.601562 57.820312 208.101562 C 62.40625 222.644531 71.640625 235.074219 84.171875 243.566406 C 97.730469 252.753906 111.054688 255.785156 129.5625 253.886719 Z M 224.90625 249.074219 L 228.65625 248.625 L 229.089844 238.6875 C 229.324219 233.21875 229.726562 220.296875 229.976562 209.96875 C 230.246094 198.941406 230.710938 191.363281 231.101562 191.605469 C 231.46875 191.832031 241.304688 204.710938 252.960938 220.230469 C 264.644531 235.789062 274.863281 248.714844 275.738281 249.042969 C 278.320312 250.019531 300.804688 249.335938 301.890625 248.25 C 303.023438 247.113281 303.707031 178.683594 302.867188 150.644531 L 302.332031 132.8125 L 289.332031 132.8125 C 279.117188 132.8125 276.113281 133.035156 275.304688 133.84375 C 274.152344 135 273.320312 151.070312 273.316406 172.332031 C 273.3125 179.019531 273.117188 185 272.878906 185.621094 C 272.328125 187.054688 271.332031 185.792969 251.863281 159.078125 C 243.53125 147.640625 235.421875 136.972656 233.84375 135.367188 L 230.972656 132.449219 L 217.671875 132.476562 C 200.570312 132.511719 200.691406 132.476562 200.105469 137.363281 C 199.503906 142.371094 199.5 237.480469 200.101562 243.847656 C 200.5 248.050781 200.78125 248.777344 202.101562 249.039062 C 204.628906 249.535156 220.859375 249.5625 224.90625 249.074219 Z M 224.90625 249.074219 "/>
<path style=" stroke:none;fill-rule:nonzero;fill:rgb(1.176471%,59.607846%,61.960787%);fill-opacity:1;" d="M 117.558594 205.832031 C 106.582031 203.078125 101.121094 192.054688 105.777344 182.050781 C 108.992188 175.148438 114.992188 171.726562 122.757812 172.367188 C 133.070312 173.222656 140.425781 185.722656 136.210938 195.242188 C 135.34375 197.210938 133.90625 199.59375 133.023438 200.539062 C 129.148438 204.691406 122.324219 207.023438 117.558594 205.832031 Z M 124.503906 195.910156 C 127.179688 194.527344 128.136719 192.761719 128.136719 189.199219 C 128.136719 185.734375 126.515625 183.316406 123.300781 181.96875 C 121.207031 181.097656 120.488281 181.09375 118.46875 181.945312 C 114.910156 183.453125 113.199219 185.753906 113.28125 188.914062 C 113.375 192.578125 114.652344 194.738281 117.433594 195.949219 C 120.445312 197.261719 121.910156 197.253906 124.503906 195.910156 Z M 124.503906 195.910156 "/>
<path style=" stroke:none;fill-rule:nonzero;fill:rgb(9.803922%,25.098041%,25.882354%);fill-opacity:1;" d="M 119.167969 190.722656 C 118.117188 189.667969 118.699219 187.613281 120.183594 187.140625 C 122.03125 186.554688 123.261719 187.601562 122.90625 189.457031 C 122.648438 190.824219 120.125 191.675781 119.167969 190.722656 Z M 119.167969 190.722656 "/>
</g>
</svg>
