<?xml version="1.0" encoding="UTF-8"?>
<svg xmlns="http://www.w3.org/2000/svg" xmlns:xlink="http://www.w3.org/1999/xlink" width="375pt" height="375pt" viewBox="0 0 375 375" version="1.2">
<g id="surface329955">
<path style=" stroke:none;fill-rule:nonzero;fill:rgb(0%,0%,0%);fill-opacity:1;" d="M 134.1875 222.410156 L 134.1875 191.285156 L 137.9375 191.285156 L 137.9375 253.535156 L 134.1875 253.535156 Z M 284.1875 222.410156 L 284.1875 191.285156 L 287.9375 191.285156 L 287.9375 253.535156 L 284.1875 253.535156 Z M 74.1875 209.660156 L 74.1875 174.785156 L 78.6875 174.785156 L 78.6875 244.535156 L 74.1875 244.535156 Z M 224.1875 209.660156 L 224.1875 174.785156 L 228.6875 174.785156 L 228.6875 244.535156 L 224.1875 244.535156 Z M 142.4375 219.410156 L 142.4375 197.285156 L 146.9375 197.285156 L 146.9375 241.535156 L 142.4375 241.535156 Z M 292.4375 219.410156 L 292.4375 197.285156 L 296.9375 197.285156 L 296.9375 241.535156 L 292.4375 241.535156 Z M 56.9375 228.785156 L 56.9375 216.785156 L 61.4375 216.785156 L 61.4375 240.785156 L 56.9375 240.785156 Z M 206.9375 228.785156 L 206.9375 216.785156 L 211.4375 216.785156 L 211.4375 240.785156 L 206.9375 240.785156 Z M 125.1875 209.285156 L 125.1875 182.285156 L 129.6875 182.285156 L 129.6875 236.285156 L 125.1875 236.285156 Z M 275.1875 209.285156 L 275.1875 182.285156 L 279.6875 182.285156 L 279.6875 236.285156 L 275.1875 236.285156 Z M 65.6875 233.535156 C 65.410156 233.257812 65.1875 224.992188 65.1875 215.160156 L 65.1875 197.285156 L 69.6875 197.285156 L 69.6875 234.035156 L 67.9375 234.035156 C 66.972656 234.035156 65.960938 233.808594 65.6875 233.535156 Z M 215.6875 233.535156 C 215.410156 233.257812 215.1875 224.992188 215.1875 215.160156 L 215.1875 197.285156 L 219.6875 197.285156 L 219.6875 234.035156 L 217.9375 234.035156 C 216.972656 234.035156 215.960938 233.808594 215.6875 233.535156 Z M 107.9375 211.160156 L 107.9375 190.535156 L 112.4375 190.535156 L 112.4375 231.785156 L 107.9375 231.785156 Z M 257.9375 211.160156 L 257.9375 190.535156 L 262.4375 190.535156 L 262.4375 231.785156 L 257.9375 231.785156 Z M 116.9375 199.535156 L 116.9375 172.535156 L 121.4375 172.535156 L 121.4375 226.535156 L 116.9375 226.535156 Z M 150.6875 208.535156 L 150.6875 190.535156 L 155.1875 190.535156 L 155.1875 226.535156 L 150.6875 226.535156 Z M 266.9375 199.535156 L 266.9375 172.535156 L 271.4375 172.535156 L 271.4375 226.535156 L 266.9375 226.535156 Z M 300.6875 208.535156 L 300.6875 190.535156 L 305.1875 190.535156 L 305.1875 226.535156 L 300.6875 226.535156 Z M 48.6875 211.535156 L 48.6875 197.285156 L 52.4375 197.285156 L 52.4375 225.785156 L 48.6875 225.785156 Z M 198.6875 211.535156 L 198.6875 197.285156 L 202.4375 197.285156 L 202.4375 225.785156 L 198.6875 225.785156 Z M 82.4375 201.785156 L 82.4375 183.785156 L 86.9375 183.785156 L 86.9375 219.785156 L 82.4375 219.785156 Z M 99.6875 201.785156 L 99.6875 183.785156 L 104.1875 183.785156 L 104.1875 219.785156 L 99.6875 219.785156 Z M 159.6875 201.785156 L 159.6875 183.785156 L 164.1875 183.785156 L 164.1875 219.785156 L 159.6875 219.785156 Z M 176.9375 208.160156 L 176.9375 196.535156 L 180.6875 196.535156 L 180.6875 219.785156 L 176.9375 219.785156 Z M 232.4375 201.785156 L 232.4375 183.785156 L 236.9375 183.785156 L 236.9375 219.785156 L 232.4375 219.785156 Z M 249.6875 201.785156 L 249.6875 183.785156 L 254.1875 183.785156 L 254.1875 219.785156 L 249.6875 219.785156 Z M 309.6875 201.785156 L 309.6875 183.785156 L 314.1875 183.785156 L 314.1875 219.785156 L 309.6875 219.785156 Z M 326.9375 208.160156 L 326.9375 196.535156 L 330.6875 196.535156 L 330.6875 219.785156 L 326.9375 219.785156 Z M 39.6875 203.660156 L 39.6875 190.535156 L 44.1875 190.535156 L 44.1875 216.785156 L 39.6875 216.785156 Z M 189.6875 214.160156 C 189.6875 211.742188 189.507812 211.535156 187.4375 211.535156 C 185.3125 211.535156 185.1875 211.367188 185.1875 208.535156 C 185.1875 205.699219 185.3125 205.535156 187.4375 205.535156 L 189.6875 205.535156 L 189.6875 190.535156 L 194.1875 190.535156 L 194.1875 216.785156 L 191.9375 216.785156 C 189.863281 216.785156 189.6875 216.574219 189.6875 214.160156 Z M 91.4375 202.535156 L 91.4375 192.035156 L 95.1875 192.035156 L 95.1875 213.035156 L 91.4375 213.035156 Z M 167.9375 195.035156 L 167.9375 177.035156 L 172.4375 177.035156 L 172.4375 213.035156 L 167.9375 213.035156 Z M 241.4375 202.535156 L 241.4375 192.035156 L 245.1875 192.035156 L 245.1875 213.035156 L 241.4375 213.035156 Z M 317.9375 195.035156 L 317.9375 177.035156 L 322.4375 177.035156 L 322.4375 213.035156 L 317.9375 213.035156 Z M 335.1875 208.535156 C 335.1875 205.699219 335.3125 205.535156 337.4375 205.535156 C 339.5625 205.535156 339.6875 205.699219 339.6875 208.535156 C 339.6875 211.367188 339.5625 211.535156 337.4375 211.535156 C 335.3125 211.535156 335.1875 211.367188 335.1875 208.535156 Z M 262.8125 168.878906 C 255.976562 167.09375 250.550781 162.820312 247.671875 156.957031 C 245.886719 153.320312 245.5625 151.738281 245.574219 146.660156 C 245.585938 141.621094 245.914062 140.042969 247.601562 136.816406 C 254.992188 122.707031 273.800781 120.214844 284.335938 131.949219 C 296.78125 145.804688 287.953125 167.714844 269.351562 169.140625 C 266.992188 169.320312 264.046875 169.203125 262.8125 168.878906 Z M 271.027344 152.566406 C 272.476562 152.011719 274.4375 148.453125 274.4375 146.378906 C 274.4375 145.566406 273.5625 143.859375 272.492188 142.589844 C 269.847656 139.445312 266.203125 139.402344 263.128906 142.476562 C 260.125 145.480469 260.429688 149.429688 263.871094 152.074219 C 265.152344 153.054688 269.050781 153.324219 271.027344 152.566406 Z M 265.71875 147.445312 C 265.136719 145.921875 266.007812 144.785156 267.753906 144.785156 C 269.492188 144.785156 270.488281 146.78125 269.328125 147.941406 C 268.75 148.519531 268.640625 148.289062 268.941406 147.140625 C 269.277344 145.851562 269.027344 145.535156 267.6875 145.535156 C 266.378906 145.535156 266.097656 145.863281 266.402344 147.035156 C 266.855469 148.761719 266.34375 149.070312 265.71875 147.445312 Z M 110.5625 168.417969 C 110.148438 168.273438 108.210938 167.9375 106.25 167.671875 C 101.949219 167.09375 98.527344 164.441406 96.59375 160.191406 C 95.410156 157.582031 95.214844 155.09375 95.203125 142.347656 L 95.1875 127.535156 L 107.1875 127.535156 L 107.1875 141.683594 C 107.1875 154.863281 107.292969 155.96875 108.738281 157.808594 C 109.890625 159.269531 110.976562 159.785156 112.914062 159.785156 C 119.148438 159.785156 119.9375 157.625 119.9375 140.546875 L 119.9375 127.535156 L 129.6875 127.535156 L 129.679688 141.597656 C 129.679688 149.332031 129.328125 156.914062 128.902344 158.449219 C 127.308594 164.1875 122.613281 167.445312 114.683594 168.3125 C 112.828125 168.515625 110.972656 168.5625 110.558594 168.417969 Z M 147.269531 168.027344 C 140.210938 167.015625 133.414062 162.878906 134.433594 160.222656 C 134.667969 159.609375 136.238281 158.191406 137.921875 157.078125 L 140.984375 155.050781 L 143.09375 157.070312 C 147.714844 161.5 157.4375 161.273438 157.4375 156.738281 C 157.4375 154.902344 156.820312 154.601562 148.996094 152.609375 C 141.117188 150.605469 137.339844 148.023438 135.761719 143.554688 C 133.730469 137.808594 136.414062 132.140625 142.71875 128.859375 C 146.390625 126.945312 155.359375 126.589844 159.890625 128.171875 C 162.816406 129.195312 167.1875 132.425781 167.1875 133.566406 C 167.1875 133.921875 165.6875 135.242188 163.855469 136.503906 L 160.519531 138.796875 L 157.667969 136.847656 C 155.328125 135.253906 154.207031 134.964844 151.480469 135.265625 C 147.171875 135.738281 145.371094 137.804688 147.65625 139.660156 C 148.503906 140.347656 151.730469 141.507812 154.828125 142.234375 C 165.039062 144.644531 168.859375 148.167969 168.859375 155.183594 C 168.859375 159.40625 167.269531 162.847656 164.382812 164.871094 C 160.386719 167.675781 153.570312 168.933594 147.269531 168.027344 Z M 206.519531 168.046875 C 202.308594 167.425781 197.078125 164.179688 194.777344 160.769531 C 191.96875 156.605469 190.890625 152.617188 190.917969 146.476562 C 190.9375 141.972656 191.320312 140.304688 193.148438 136.726562 C 198.898438 125.46875 215.589844 123.484375 223.996094 133.058594 C 226.085938 135.4375 227.824219 139.894531 226.988281 140.730469 C 226.800781 140.917969 224.429688 141.277344 221.722656 141.53125 L 216.792969 141.992188 L 215.652344 139.265625 C 213.589844 134.328125 208.167969 133.71875 205.488281 138.125 C 202.335938 143.3125 202.980469 154.914062 206.601562 158.097656 C 209.972656 161.0625 215.566406 159.621094 217.855469 155.195312 C 219 152.980469 219.203125 152.902344 222.464844 153.394531 C 228.625 154.316406 228.753906 154.492188 226.46875 158.96875 C 223 165.769531 215.175781 169.332031 206.519531 168.046875 Z M 294.285156 167.867188 C 294.078125 167.328125 294 157.945312 294.109375 147.023438 L 294.3125 127.160156 L 306.949219 127.160156 L 313.378906 136.058594 L 319.8125 144.960938 L 320.019531 135.871094 L 320.230469 126.785156 L 331.460938 126.785156 L 331.0625 168.410156 L 325.785156 168.625 L 320.507812 168.84375 L 313.246094 158.976562 L 305.980469 149.109375 L 305.769531 158.757812 L 305.5625 168.410156 L 300.113281 168.628906 C 296.148438 168.789062 294.5625 168.582031 294.285156 167.867188 Z M 303.851562 156.597656 C 304.003906 148.785156 304.308594 145.910156 304.976562 145.910156 C 305.484375 145.910156 309.453125 150.71875 313.800781 156.597656 L 321.710938 167.285156 L 329.9375 167.285156 L 329.9375 128.285156 L 321.6875 128.285156 L 321.6875 138.035156 C 321.6875 146.09375 321.496094 147.785156 320.585938 147.785156 C 319.984375 147.785156 316.363281 143.398438 312.542969 138.035156 L 305.597656 128.285156 L 295.4375 128.285156 L 295.4375 147.285156 C 295.4375 157.734375 295.660156 166.507812 295.9375 166.785156 C 296.210938 167.058594 298.058594 167.285156 300.039062 167.285156 L 303.644531 167.285156 Z M 41.9375 147.796875 L 41.9375 127.488281 L 50.710938 127.699219 L 59.488281 127.910156 L 62.390625 137.167969 C 63.984375 142.261719 65.507812 146.214844 65.769531 145.949219 C 66.035156 145.683594 67.460938 141.515625 68.941406 136.6875 L 71.628906 127.910156 L 80.417969 127.699219 L 89.210938 127.488281 L 88.8125 167.660156 L 77.1875 168.097656 L 77.1875 154.789062 C 77.1875 141.117188 76.761719 139.71875 74.71875 146.660156 C 74.109375 148.722656 72.355469 154.390625 70.816406 159.257812 L 68.023438 168.105469 L 60.367188 167.660156 L 51.851562 141.410156 L 51.3125 167.660156 L 41.9375 168.105469 Z M 173.9375 147.816406 L 173.9375 127.535156 L 185.960938 127.535156 L 185.5625 167.660156 L 173.9375 168.097656 Z M 173.9375 147.816406 "/>
<path style=" stroke:none;fill-rule:nonzero;fill:rgb(9.803922%,25.098041%,25.882354%);fill-opacity:1;" d="M 42.085938 147.628906 L 42.085938 127.867188 L 50.613281 128.074219 L 59.136719 128.28125 L 62.0625 137.253906 C 63.671875 142.191406 65.335938 146.113281 65.761719 145.972656 C 66.1875 145.832031 67.789062 141.710938 69.324219 136.816406 L 72.113281 127.914062 L 88.867188 127.914062 L 88.863281 143.8125 C 88.859375 152.558594 88.648438 161.441406 88.394531 163.550781 L 87.933594 167.390625 L 78.089844 167.390625 L 77.558594 154.925781 C 77.1875 146.296875 76.773438 142.546875 76.210938 142.734375 C 75.761719 142.882812 73.734375 148.410156 71.699219 155.015625 L 68 167.023438 L 64.324219 167.238281 L 60.644531 167.457031 L 56.308594 154.082031 L 51.976562 140.707031 L 51.320312 154.046875 L 50.664062 167.390625 L 42.085938 167.390625 Z M 42.085938 147.628906 "/>
<path style=" stroke:none;fill-rule:nonzero;fill:rgb(9.803922%,25.098041%,25.882354%);fill-opacity:1;" d="M 106.511719 167.375 C 102.46875 166.527344 98.960938 163.863281 97.199219 160.304688 C 96.019531 157.917969 95.789062 155.40625 95.570312 142.71875 L 95.316406 127.914062 L 107.144531 127.914062 L 107.144531 142.070312 C 107.144531 155.371094 107.234375 156.34375 108.6875 158.1875 C 110.019531 159.882812 110.683594 160.121094 113.546875 159.933594 C 116.199219 159.757812 117.171875 159.296875 118.398438 157.648438 C 119.808594 155.757812 119.957031 154.433594 120.195312 141.75 L 120.457031 127.914062 L 129.175781 127.914062 L 128.707031 159.101562 L 126.59375 161.871094 C 122.894531 166.714844 114.429688 169.035156 106.511719 167.375 Z M 106.511719 167.375 "/>
<path style=" stroke:none;fill-rule:nonzero;fill:rgb(9.803922%,25.098041%,25.882354%);fill-opacity:1;" d="M 144.421875 166.992188 C 139.453125 165.605469 134.746094 162.609375 135.058594 161.03125 C 135.183594 160.394531 136.503906 158.886719 137.988281 157.683594 L 140.691406 155.5 L 142.957031 157.402344 C 148.628906 162.175781 158.203125 161.464844 157.453125 156.328125 C 157.253906 154.941406 156.074219 154.332031 149.816406 152.382812 C 139.050781 149.027344 135.652344 146.050781 135.652344 139.976562 C 135.652344 132.527344 142.304688 127.71875 152.550781 127.761719 C 158.050781 127.785156 161.304688 128.839844 165.074219 131.816406 C 166.898438 133.257812 166.675781 133.878906 163.535156 136.101562 L 160.746094 138.070312 L 157.3125 136.332031 C 152.371094 133.832031 146.617188 134.847656 146.617188 138.21875 C 146.617188 139.859375 149.070312 141.152344 155.386719 142.851562 C 167.078125 145.992188 171.019531 151.996094 167.089844 160.65625 C 165.917969 163.238281 164.960938 164.117188 161.695312 165.613281 C 156.589844 167.949219 149.796875 168.492188 144.421875 166.992188 Z M 144.421875 166.992188 "/>
<path style=" stroke:none;fill-rule:nonzero;fill:rgb(9.803922%,25.098041%,25.882354%);fill-opacity:1;" d="M 174.394531 147.652344 L 174.394531 127.914062 L 185.359375 127.914062 L 185.359375 167.390625 L 174.394531 167.390625 Z M 174.394531 147.652344 "/>
<path style=" stroke:none;fill-rule:nonzero;fill:rgb(9.803922%,25.098041%,41.960785%);fill-opacity:1;" d="M 204.363281 167.035156 C 199.882812 165.589844 195.929688 162.136719 193.589844 157.628906 C 191.90625 154.386719 191.628906 152.957031 191.605469 147.285156 C 191.578125 141.886719 191.859375 140.175781 193.164062 137.734375 C 200.398438 124.21875 219.175781 123.988281 225.914062 137.332031 C 227.394531 140.257812 226.710938 141.039062 222.640625 141.070312 C 221.234375 141.082031 219.355469 141.289062 218.46875 141.523438 C 217.1875 141.871094 216.765625 141.585938 216.398438 140.121094 C 215.726562 137.457031 212.773438 134.980469 210.257812 134.980469 C 205.675781 134.980469 203.371094 139.09375 203.367188 147.285156 C 203.363281 155.855469 205.886719 160.078125 211.015625 160.078125 C 213.40625 160.078125 216.613281 158.050781 218.027344 155.644531 C 219.277344 153.515625 219.527344 153.417969 222.640625 153.871094 C 224.449219 154.136719 226.21875 154.628906 226.570312 154.96875 C 228.457031 156.785156 223.667969 163.484375 218.804688 165.835938 C 214.605469 167.863281 208.5 168.371094 204.363281 167.035156 Z M 204.363281 167.035156 "/>
<path style=" stroke:none;fill-rule:nonzero;fill:rgb(9.803922%,25.098041%,25.882354%);fill-opacity:1;" d="M 174.394531 147.652344 L 174.394531 127.914062 L 185.359375 127.914062 L 185.359375 167.390625 L 174.394531 167.390625 Z M 174.394531 147.652344 "/>
<path style=" stroke:none;fill-rule:nonzero;fill:rgb(9.803922%,25.098041%,25.882354%);fill-opacity:1;" d="M 174.394531 147.652344 L 174.394531 127.914062 L 185.359375 127.914062 L 185.359375 167.390625 L 174.394531 167.390625 Z M 174.394531 147.652344 "/>
<path style=" stroke:none;fill-rule:nonzero;fill:rgb(9.803922%,25.098041%,25.882354%);fill-opacity:1;" d="M 202.183594 165.417969 C 197.71875 163.0625 193.867188 158.585938 192.703125 154.394531 C 191.625 150.519531 191.761719 142.183594 192.941406 139.351562 C 195.621094 132.945312 203.042969 127.929688 209.847656 127.929688 C 214.445312 127.929688 220.140625 130.492188 222.941406 133.820312 C 225.316406 136.640625 226.726562 139.421875 226.105469 140.042969 C 225.871094 140.277344 223.761719 140.644531 221.417969 140.855469 C 217.210938 141.230469 217.148438 141.210938 216.332031 139.027344 C 214.507812 134.148438 207.707031 133.300781 205.078125 137.621094 C 202.222656 142.316406 202.378906 152.878906 205.371094 157.328125 C 206.75 159.382812 207.453125 159.746094 210.464844 159.9375 C 213.699219 160.144531 214.175781 159.945312 216.921875 157.195312 C 219.824219 154.292969 221.335938 153.804688 224.648438 154.691406 C 228.261719 155.660156 225.226562 161.425781 219.269531 164.914062 C 216.867188 166.324219 214.605469 166.953125 211.070312 167.195312 C 206.742188 167.492188 205.738281 167.292969 202.183594 165.417969 Z M 202.183594 165.417969 "/>
<path style=" stroke:none;fill-rule:nonzero;fill:rgb(9.803922%,25.098041%,25.882354%);fill-opacity:1;" d="M 141.921875 165.617188 C 134.777344 162.609375 134.160156 161.074219 138.722656 157.667969 C 140.570312 156.285156 140.59375 156.289062 143.617188 158.289062 C 149.484375 162.171875 157.582031 161.273438 157.582031 156.734375 C 157.582031 154.726562 157.421875 154.636719 147.28125 151.027344 C 140.53125 148.621094 137.191406 146.003906 136.460938 142.535156 C 135.320312 137.125 137.625 132.886719 143.328125 129.890625 C 147.828125 127.527344 156.765625 127.652344 161.617188 130.152344 C 166.078125 132.445312 166.476562 133.847656 163.230469 135.851562 L 160.765625 137.375 L 156.972656 135.933594 C 152.597656 134.273438 151.0625 134.164062 148.476562 135.34375 C 146.109375 136.421875 145.992188 139.1875 148.261719 140.601562 C 149.164062 141.167969 152.226562 142.316406 155.066406 143.15625 C 166.484375 146.539062 170.519531 152.660156 166.582031 160.628906 C 163.554688 166.75 150.753906 169.339844 141.921875 165.617188 Z M 141.921875 165.617188 "/>
<path style=" stroke:none;fill-rule:nonzero;fill:rgb(9.803922%,25.098041%,25.882354%);fill-opacity:1;" d="M 103.796875 166.046875 C 100.410156 164.457031 98.046875 161.789062 97.015625 158.386719 C 96.628906 157.105469 96.113281 149.726562 95.875 141.988281 L 95.441406 127.914062 L 107.144531 127.914062 L 107.144531 142.195312 C 107.144531 159.253906 107.410156 160.078125 112.949219 160.078125 C 115.703125 160.078125 116.746094 159.703125 118.164062 158.191406 C 119.851562 156.398438 119.957031 155.710938 120.410156 143.757812 C 120.671875 136.851562 120.917969 130.464844 120.957031 129.558594 C 121.023438 128.0625 121.394531 127.914062 125.011719 127.914062 L 128.996094 127.914062 L 128.574219 143.449219 C 128.167969 158.433594 128.089844 159.066406 126.378906 161.363281 C 123.597656 165.097656 119.40625 166.867188 112.625 167.179688 C 107.988281 167.390625 106.160156 167.15625 103.796875 166.046875 Z M 103.796875 166.046875 "/>
<path style=" stroke:none;fill-rule:nonzero;fill:rgb(9.803922%,25.098041%,25.882354%);fill-opacity:1;" d="M 42.085938 147.558594 L 42.085938 127.730469 L 44.367188 128.1875 C 45.625 128.441406 49.371094 128.644531 52.695312 128.644531 L 58.734375 128.644531 L 61.457031 136.589844 C 62.953125 140.960938 64.472656 144.992188 64.839844 145.546875 C 65.933594 147.207031 67.191406 144.835938 69.921875 135.972656 L 72.40625 127.914062 L 89.023438 127.914062 L 88.523438 146.371094 C 88.25 156.523438 87.863281 165.40625 87.667969 166.109375 C 87.378906 167.140625 86.480469 167.390625 83.023438 167.390625 L 78.738281 167.390625 L 78.351562 163.550781 C 78.136719 161.441406 77.800781 156.125 77.601562 151.742188 C 77.019531 138.859375 76.347656 139.332031 70.949219 156.421875 L 67.832031 166.292969 L 64.644531 166.753906 C 62.890625 167.011719 61.246094 167.011719 60.992188 166.753906 C 60.738281 166.5 58.609375 160.371094 56.265625 153.132812 L 52 139.976562 L 51.519531 145.09375 C 51.253906 147.90625 50.992188 152.84375 50.9375 156.058594 C 50.882812 159.273438 50.636719 163.140625 50.386719 164.648438 L 49.933594 167.390625 L 42.085938 167.390625 Z M 42.085938 147.558594 "/>
<path style=" stroke:none;fill-rule:nonzero;fill:rgb(1.960784%,58.039218%,60.392159%);fill-opacity:1;" d="M 258.824219 166.769531 C 250.460938 162.808594 246.070312 155.980469 246.054688 146.921875 C 246.042969 139.910156 248.035156 135.382812 253.160156 130.773438 C 261.695312 123.101562 273.4375 123.050781 281.886719 130.644531 C 287.175781 135.398438 289.417969 140.117188 289.453125 146.554688 C 289.488281 153.359375 287.347656 158.183594 282.214844 162.875 C 275.402344 169.101562 266.777344 170.539062 258.824219 166.769531 Z M 271.292969 152.941406 C 274.753906 150.539062 275.492188 145.234375 272.773438 142.304688 C 270.425781 139.769531 267.914062 139.21875 265.160156 140.644531 C 257.765625 144.46875 259.953125 153.308594 268.328125 153.441406 C 269.535156 153.460938 270.867188 153.234375 271.292969 152.941406 Z M 271.292969 152.941406 "/>
<path style=" stroke:none;fill-rule:nonzero;fill:rgb(0%,47.058824%,49.019608%);fill-opacity:1;" d="M 74.25 209.785156 L 74.25 175.429688 L 78.632812 175.429688 L 78.632812 244.144531 L 74.25 244.144531 Z M 74.25 209.785156 "/>
<path style=" stroke:none;fill-rule:nonzero;fill:rgb(0%,47.058824%,49.019608%);fill-opacity:1;" d="M 69.449219 215.632812 C 69.449219 205.382812 69.550781 201.1875 69.675781 206.3125 C 69.804688 211.441406 69.804688 219.828125 69.675781 224.953125 C 69.550781 230.082031 69.449219 225.886719 69.449219 215.632812 Z M 69.449219 215.632812 "/>
<path style=" stroke:none;fill-rule:nonzero;fill:rgb(0%,47.058824%,49.019608%);fill-opacity:1;" d="M 66.234375 232.496094 C 65.773438 231.636719 65.476562 224.445312 65.476562 214.21875 L 65.476562 197.359375 L 69.132812 197.359375 L 69.132812 215.632812 C 69.132812 231.195312 68.972656 233.910156 68.058594 233.910156 C 67.472656 233.910156 66.648438 233.273438 66.234375 232.496094 Z M 66.234375 232.496094 "/>
<path style=" stroke:none;fill-rule:nonzero;fill:rgb(0%,47.058824%,49.019608%);fill-opacity:1;" d="M 57.433594 228.792969 L 57.433594 217.097656 L 61.089844 217.097656 L 61.089844 240.488281 L 57.433594 240.488281 Z M 57.433594 228.792969 "/>
<path style=" stroke:none;fill-rule:nonzero;fill:rgb(0%,47.058824%,49.019608%);fill-opacity:1;" d="M 49.394531 211.25 C 49.394531 197.847656 49.445312 197.359375 50.855469 197.359375 C 52.265625 197.359375 52.316406 197.847656 52.316406 211.25 C 52.316406 224.648438 52.265625 225.136719 50.855469 225.136719 C 49.445312 225.136719 49.394531 224.648438 49.394531 211.25 Z M 49.394531 211.25 "/>
<path style=" stroke:none;fill-rule:nonzero;fill:rgb(0%,47.058824%,49.019608%);fill-opacity:1;" d="M 39.890625 203.574219 L 39.890625 190.78125 L 43.546875 190.78125 L 43.546875 216.367188 L 39.890625 216.367188 Z M 39.890625 203.574219 "/>
<path style=" stroke:none;fill-rule:nonzero;fill:rgb(0%,47.058824%,49.019608%);fill-opacity:1;" d="M 83.019531 201.746094 L 83.019531 184.203125 L 86.675781 184.203125 L 86.675781 219.289062 L 83.019531 219.289062 Z M 83.019531 201.746094 "/>
<path style=" stroke:none;fill-rule:nonzero;fill:rgb(0%,47.058824%,49.019608%);fill-opacity:1;" d="M 91.792969 202.476562 C 91.792969 192.730469 91.863281 192.242188 93.253906 192.242188 C 94.644531 192.242188 94.714844 192.730469 94.714844 202.476562 C 94.714844 212.222656 94.644531 212.710938 93.253906 212.710938 C 91.863281 212.710938 91.792969 212.222656 91.792969 202.476562 Z M 91.792969 202.476562 "/>
<path style=" stroke:none;fill-rule:nonzero;fill:rgb(0%,47.058824%,49.019608%);fill-opacity:1;" d="M 99.832031 201.746094 L 99.832031 184.203125 L 103.488281 184.203125 L 103.488281 219.289062 L 99.832031 219.289062 Z M 99.832031 201.746094 "/>
<path style=" stroke:none;fill-rule:nonzero;fill:rgb(0%,47.058824%,49.019608%);fill-opacity:1;" d="M 112.582031 211.25 C 112.582031 199.789062 112.683594 195.101562 112.804688 200.832031 C 112.929688 206.5625 112.929688 215.9375 112.804688 221.664062 C 112.683594 227.394531 112.582031 222.707031 112.582031 211.25 Z M 112.582031 211.25 "/>
<path style=" stroke:none;fill-rule:nonzero;fill:rgb(0%,47.058824%,49.019608%);fill-opacity:1;" d="M 108.605469 211.25 L 108.605469 190.78125 L 112.261719 190.78125 L 112.261719 231.714844 L 108.605469 231.714844 Z M 108.605469 211.25 "/>
<path style=" stroke:none;fill-rule:nonzero;fill:rgb(0%,47.058824%,49.019608%);fill-opacity:1;" d="M 117.375 199.550781 L 117.375 173.238281 L 121.03125 173.238281 L 121.03125 225.867188 L 117.375 225.867188 Z M 117.375 199.550781 "/>
<path style=" stroke:none;fill-rule:nonzero;fill:rgb(0%,47.058824%,49.019608%);fill-opacity:1;" d="M 125.417969 209.421875 L 125.417969 182.738281 L 129.074219 182.738281 L 129.074219 236.101562 L 125.417969 236.101562 Z M 125.417969 209.421875 "/>
<path style=" stroke:none;fill-rule:nonzero;fill:rgb(0%,47.058824%,49.019608%);fill-opacity:1;" d="M 134.191406 222.214844 L 134.191406 191.511719 L 137.84375 191.511719 L 137.84375 252.914062 L 134.191406 252.914062 Z M 134.191406 222.214844 "/>
<path style=" stroke:none;fill-rule:nonzero;fill:rgb(0%,47.058824%,49.019608%);fill-opacity:1;" d="M 142.960938 219.289062 L 142.960938 197.359375 L 146.617188 197.359375 L 146.617188 241.21875 L 142.960938 241.21875 Z M 142.960938 219.289062 "/>
<path style=" stroke:none;fill-rule:nonzero;fill:rgb(0%,47.058824%,49.019608%);fill-opacity:1;" d="M 154.972656 208.324219 C 154.972656 198.472656 155.078125 194.445312 155.203125 199.371094 C 155.328125 204.292969 155.328125 212.355469 155.203125 217.277344 C 155.078125 222.203125 154.972656 218.175781 154.972656 208.324219 Z M 154.972656 208.324219 "/>
<path style=" stroke:none;fill-rule:nonzero;fill:rgb(0%,47.058824%,49.019608%);fill-opacity:1;" d="M 151.003906 208.324219 L 151.003906 190.78125 L 154.65625 190.78125 L 154.65625 225.867188 L 151.003906 225.867188 Z M 151.003906 208.324219 "/>
<path style=" stroke:none;fill-rule:nonzero;fill:rgb(0%,47.058824%,49.019608%);fill-opacity:1;" d="M 159.773438 201.746094 L 159.773438 184.203125 L 164.160156 184.203125 L 164.160156 219.289062 L 159.773438 219.289062 Z M 159.773438 201.746094 "/>
<path style=" stroke:none;fill-rule:nonzero;fill:rgb(0%,47.058824%,49.019608%);fill-opacity:1;" d="M 168.546875 195.167969 L 168.546875 177.621094 L 172.203125 177.621094 L 172.203125 212.710938 L 168.546875 212.710938 Z M 168.546875 195.167969 "/>
<path style=" stroke:none;fill-rule:nonzero;fill:rgb(0%,47.058824%,49.019608%);fill-opacity:1;" d="M 177.316406 207.957031 C 177.316406 197.117188 177.382812 196.628906 178.78125 196.628906 C 180.179688 196.628906 180.242188 197.117188 180.242188 207.957031 C 180.242188 218.800781 180.179688 219.289062 178.78125 219.289062 C 177.382812 219.289062 177.316406 218.800781 177.316406 207.957031 Z M 177.316406 207.957031 "/>
<path style=" stroke:none;fill-rule:nonzero;fill:rgb(0%,47.058824%,49.019608%);fill-opacity:1;" d="M 190.234375 215.878906 C 189.964844 215.609375 189.746094 214.480469 189.746094 213.367188 C 189.746094 211.703125 189.386719 211.304688 187.734375 211.113281 C 186.039062 210.917969 185.726562 210.539062 185.726562 208.691406 C 185.726562 206.839844 186.039062 206.460938 187.734375 206.265625 L 189.746094 206.035156 L 189.746094 190.78125 L 194.132812 190.78125 L 194.132812 216.367188 L 192.425781 216.367188 C 191.488281 216.367188 190.5 216.144531 190.234375 215.878906 Z M 190.234375 215.878906 "/>
<path style=" stroke:none;fill-rule:nonzero;fill:rgb(0%,47.058824%,49.019608%);fill-opacity:1;" d="M 202.476562 211.25 C 202.476562 203.410156 202.585938 200.203125 202.71875 204.121094 C 202.847656 208.042969 202.847656 214.457031 202.71875 218.375 C 202.585938 222.296875 202.476562 219.089844 202.476562 211.25 Z M 202.476562 211.25 "/>
<path style=" stroke:none;fill-rule:nonzero;fill:rgb(0%,47.058824%,49.019608%);fill-opacity:1;" d="M 207.289062 228.792969 L 207.289062 217.097656 L 210.945312 217.097656 L 210.945312 240.488281 L 207.289062 240.488281 Z M 207.289062 228.792969 "/>
<path style=" stroke:none;fill-rule:nonzero;fill:rgb(0%,47.058824%,49.019608%);fill-opacity:1;" d="M 199.25 211.25 C 199.25 197.847656 199.300781 197.359375 200.710938 197.359375 C 202.121094 197.359375 202.171875 197.847656 202.171875 211.25 C 202.171875 224.648438 202.121094 225.136719 200.710938 225.136719 C 199.300781 225.136719 199.25 224.648438 199.25 211.25 Z M 199.25 211.25 "/>
<path style=" stroke:none;fill-rule:nonzero;fill:rgb(0%,47.058824%,49.019608%);fill-opacity:1;" d="M 216.292969 232.996094 C 215.96875 232.492188 215.585938 224.269531 215.441406 214.71875 L 215.179688 197.359375 L 218.984375 197.359375 L 218.984375 215.632812 C 218.984375 231.058594 218.820312 233.910156 217.933594 233.910156 C 217.351562 233.910156 216.613281 233.496094 216.292969 232.996094 Z M 216.292969 232.996094 "/>
<path style=" stroke:none;fill-rule:nonzero;fill:rgb(0%,47.058824%,49.019608%);fill-opacity:1;" d="M 224.832031 209.785156 L 224.832031 175.429688 L 228.488281 175.429688 L 228.488281 244.144531 L 224.832031 244.144531 Z M 224.832031 209.785156 "/>
<path style=" stroke:none;fill-rule:nonzero;fill:rgb(0%,47.058824%,49.019608%);fill-opacity:1;" d="M 232.875 201.746094 L 232.875 184.203125 L 236.527344 184.203125 L 236.527344 219.289062 L 232.875 219.289062 Z M 232.875 201.746094 "/>
<path style=" stroke:none;fill-rule:nonzero;fill:rgb(0%,47.058824%,49.019608%);fill-opacity:1;" d="M 241.644531 202.476562 C 241.644531 192.730469 241.714844 192.242188 243.109375 192.242188 C 244.5 192.242188 244.570312 192.730469 244.570312 202.476562 C 244.570312 212.222656 244.5 212.710938 243.109375 212.710938 C 241.714844 212.710938 241.644531 212.222656 241.644531 202.476562 Z M 241.644531 202.476562 "/>
<path style=" stroke:none;fill-rule:nonzero;fill:rgb(0%,47.058824%,49.019608%);fill-opacity:1;" d="M 249.6875 201.746094 L 249.6875 184.203125 L 254.074219 184.203125 L 254.074219 219.289062 L 249.6875 219.289062 Z M 249.6875 201.746094 "/>
<path style=" stroke:none;fill-rule:nonzero;fill:rgb(0%,47.058824%,49.019608%);fill-opacity:1;" d="M 258.457031 211.25 L 258.457031 190.78125 L 262.113281 190.78125 L 262.113281 231.714844 L 258.457031 231.714844 Z M 258.457031 211.25 "/>
<path style=" stroke:none;fill-rule:nonzero;fill:rgb(0%,47.058824%,49.019608%);fill-opacity:1;" d="M 271.214844 199.550781 C 271.214844 184.878906 271.3125 178.875 271.433594 186.210938 C 271.550781 193.550781 271.550781 205.554688 271.433594 212.894531 C 271.3125 220.230469 271.214844 214.226562 271.214844 199.550781 Z M 271.214844 199.550781 "/>
<path style=" stroke:none;fill-rule:nonzero;fill:rgb(0%,47.058824%,49.019608%);fill-opacity:1;" d="M 267.230469 199.550781 L 267.230469 173.238281 L 270.886719 173.238281 L 270.886719 225.867188 L 267.230469 225.867188 Z M 267.230469 199.550781 "/>
<path style=" stroke:none;fill-rule:nonzero;fill:rgb(0%,47.058824%,49.019608%);fill-opacity:1;" d="M 279.988281 209.421875 C 279.988281 194.546875 280.085938 188.5625 280.203125 196.128906 C 280.324219 203.691406 280.324219 215.863281 280.203125 223.175781 C 280.085938 230.484375 279.988281 224.296875 279.988281 209.421875 Z M 279.988281 209.421875 "/>
<path style=" stroke:none;fill-rule:nonzero;fill:rgb(0%,47.058824%,49.019608%);fill-opacity:1;" d="M 275.273438 209.421875 L 275.273438 182.738281 L 279.65625 182.738281 L 279.65625 236.101562 L 275.273438 236.101562 Z M 275.273438 209.421875 "/>
<path style=" stroke:none;fill-rule:nonzero;fill:rgb(0%,47.058824%,49.019608%);fill-opacity:1;" d="M 284.773438 222.214844 C 284.773438 192 284.796875 191.511719 286.238281 191.511719 C 287.675781 191.511719 287.699219 192 287.699219 222.214844 C 287.699219 252.425781 287.675781 252.914062 286.238281 252.914062 C 284.796875 252.914062 284.773438 252.425781 284.773438 222.214844 Z M 284.773438 222.214844 "/>
<path style=" stroke:none;fill-rule:nonzero;fill:rgb(0%,47.058824%,49.019608%);fill-opacity:1;" d="M 296.792969 219.289062 C 296.792969 207.027344 296.894531 202.011719 297.015625 208.140625 C 297.140625 214.273438 297.140625 224.304688 297.015625 230.4375 C 296.894531 236.566406 296.792969 231.550781 296.792969 219.289062 Z M 296.792969 219.289062 "/>
<path style=" stroke:none;fill-rule:nonzero;fill:rgb(0%,47.058824%,49.019608%);fill-opacity:1;" d="M 292.816406 219.289062 L 292.816406 197.359375 L 296.46875 197.359375 L 296.46875 241.21875 L 292.816406 241.21875 Z M 292.816406 219.289062 "/>
<path style=" stroke:none;fill-rule:nonzero;fill:rgb(0%,47.058824%,49.019608%);fill-opacity:1;" d="M 304.828125 208.324219 C 304.828125 198.472656 304.929688 194.445312 305.058594 199.371094 C 305.183594 204.292969 305.183594 212.355469 305.058594 217.277344 C 304.929688 222.203125 304.828125 218.175781 304.828125 208.324219 Z M 304.828125 208.324219 "/>
<path style=" stroke:none;fill-rule:nonzero;fill:rgb(0%,47.058824%,49.019608%);fill-opacity:1;" d="M 300.855469 208.324219 L 300.855469 190.78125 L 304.511719 190.78125 L 304.511719 225.867188 L 300.855469 225.867188 Z M 300.855469 208.324219 "/>
<path style=" stroke:none;fill-rule:nonzero;fill:rgb(0%,47.058824%,49.019608%);fill-opacity:1;" d="M 314.332031 201.746094 C 314.332031 191.894531 314.433594 187.867188 314.558594 192.789062 C 314.6875 197.714844 314.6875 205.773438 314.558594 210.699219 C 314.433594 215.625 314.332031 211.59375 314.332031 201.746094 Z M 314.332031 201.746094 "/>
<path style=" stroke:none;fill-rule:nonzero;fill:rgb(0%,47.058824%,49.019608%);fill-opacity:1;" d="M 310.359375 201.746094 L 310.359375 184.203125 L 314.015625 184.203125 L 314.015625 219.289062 L 310.359375 219.289062 Z M 310.359375 201.746094 "/>
<path style=" stroke:none;fill-rule:nonzero;fill:rgb(0%,47.058824%,49.019608%);fill-opacity:1;" d="M 318.398438 195.167969 L 318.398438 177.621094 L 322.054688 177.621094 L 322.054688 212.710938 L 318.398438 212.710938 Z M 318.398438 195.167969 "/>
<path style=" stroke:none;fill-rule:nonzero;fill:rgb(0%,47.058824%,49.019608%);fill-opacity:1;" d="M 330.390625 207.957031 C 330.394531 201.527344 330.503906 198.992188 330.640625 202.328125 C 330.777344 205.664062 330.777344 210.925781 330.640625 214.023438 C 330.503906 217.121094 330.390625 214.390625 330.390625 207.957031 Z M 330.390625 207.957031 "/>
<path style=" stroke:none;fill-rule:nonzero;fill:rgb(0%,47.058824%,49.019608%);fill-opacity:1;" d="M 327.171875 207.957031 C 327.171875 197.117188 327.234375 196.628906 328.632812 196.628906 C 330.035156 196.628906 330.097656 197.117188 330.097656 207.957031 C 330.097656 218.800781 330.035156 219.289062 328.632812 219.289062 C 327.234375 219.289062 327.171875 218.800781 327.171875 207.957031 Z M 327.171875 207.957031 "/>
<path style=" stroke:none;fill-rule:nonzero;fill:rgb(0%,47.058824%,49.019608%);fill-opacity:1;" d="M 335.625 209.933594 C 334.9375 207.769531 335.921875 206.023438 337.683594 206.277344 C 339.945312 206.597656 339.917969 210.785156 337.652344 211.109375 C 336.609375 211.257812 335.917969 210.855469 335.625 209.933594 Z M 335.625 209.933594 "/>
<path style=" stroke:none;fill-rule:nonzero;fill:rgb(21.568628%,34.901962%,35.294119%);fill-opacity:0.87451;" d="M 316.207031 162.273438 C 314.097656 159.425781 312.535156 156.929688 312.734375 156.730469 C 312.9375 156.527344 314.828125 158.691406 316.9375 161.539062 C 319.050781 164.386719 320.613281 166.882812 320.410156 167.082031 C 320.210938 167.285156 318.316406 165.121094 316.207031 162.273438 Z M 316.207031 162.273438 "/>
<path style=" stroke:none;fill-rule:nonzero;fill:rgb(9.803922%,25.098041%,25.882354%);fill-opacity:1;" d="M 320.269531 168.242188 C 320.15625 168.054688 320.246094 167.574219 320.46875 167.175781 C 320.746094 166.675781 320.976562 166.605469 321.1875 166.949219 C 321.386719 167.265625 323.121094 167.453125 325.929688 167.453125 L 330.355469 167.453125 L 330.355469 128.242188 L 321.445312 128.242188 L 321.441406 136.820312 C 321.433594 145.21875 321.25 147.402344 320.546875 147.402344 C 320.023438 147.402344 316.011719 142.335938 310.722656 135 L 306.011719 128.464844 L 295.058594 128.214844 L 295.222656 147.40625 C 295.363281 163.820312 295.484375 166.65625 296.054688 167.015625 C 296.417969 167.25 298.371094 167.441406 300.394531 167.445312 L 304.070312 167.453125 L 304.074219 159.988281 C 304.078125 151.070312 304.449219 146.414062 305.136719 146.640625 C 305.703125 146.824219 309.851562 151.6875 311.972656 154.648438 C 313.0625 156.171875 313.265625 156.726562 312.800781 156.902344 C 312.402344 157.054688 311.113281 155.648438 309.128906 152.894531 L 306.074219 148.648438 L 305.785156 152.371094 C 305.625 154.414062 305.476562 158.847656 305.449219 162.214844 L 305.40625 168.34375 L 300.371094 168.34375 C 297.050781 168.34375 295.15625 168.160156 294.804688 167.808594 C 294.40625 167.410156 294.269531 162.851562 294.269531 150.050781 C 294.269531 140.578125 294.398438 131.59375 294.554688 130.078125 L 294.84375 127.328125 L 300.875 127.453125 L 306.910156 127.574219 L 312.851562 135.8125 C 316.117188 140.339844 319.085938 144.34375 319.449219 144.707031 C 320.03125 145.289062 320.109375 144.714844 320.113281 139.8125 C 320.113281 136.757812 320.242188 132.605469 320.402344 130.582031 L 320.6875 126.90625 L 331.371094 126.90625 L 331.046875 147.511719 C 330.863281 158.847656 330.6875 168.148438 330.648438 168.183594 C 330.359375 168.449219 320.433594 168.507812 320.269531 168.242188 Z M 320.269531 168.242188 "/>
</g>
</svg>
